G75*
%MOIN*%
%OFA0B0*%
%FSLAX25Y25*%
%IPPOS*%
%LPD*%
%AMOC8*
5,1,8,0,0,1.08239X$1,22.5*
%
%ADD10R,0.08474X0.20285*%
%ADD11R,0.07293X0.16348*%
%ADD12C,0.02047*%
%ADD13R,0.02765X0.06506*%
%ADD14R,0.06506X0.02765*%
%ADD15R,0.06506X0.10049*%
%ADD16C,0.04956*%
%ADD17R,0.03750X0.03750*%
%ADD18R,0.04100X0.03700*%
%ADD19C,0.02303*%
%ADD20R,0.04594X0.04594*%
%ADD21R,0.04537X0.06112*%
%ADD22C,0.05100*%
%ADD23R,0.03307X0.04449*%
%ADD24R,0.16600X0.09600*%
%ADD25R,0.09600X0.16600*%
%ADD26R,0.02175X0.03061*%
%ADD27R,0.03120X0.07687*%
%ADD28R,0.01387X0.02962*%
%ADD29R,0.02962X0.01387*%
%ADD30R,0.10836X0.06899*%
%ADD31R,0.01702X0.02962*%
%ADD32R,0.02962X0.01702*%
%ADD33R,0.07687X0.07687*%
D10*
X0186102Y0324291D03*
D11*
X0140827Y0324291D03*
D12*
X0150354Y0305000D02*
X0152559Y0305000D01*
X0152559Y0303425D01*
X0150354Y0303425D01*
X0150354Y0305000D01*
X0150354Y0303680D02*
X0152559Y0303680D01*
X0152559Y0298701D02*
X0150354Y0298701D01*
X0150354Y0297126D01*
X0152559Y0297126D01*
X0152559Y0298701D01*
X0152559Y0297543D02*
X0150354Y0297543D01*
X0157835Y0297543D02*
X0160039Y0297543D01*
X0160039Y0297913D02*
X0157835Y0297913D01*
X0157835Y0296339D01*
X0160039Y0296339D01*
X0160039Y0297913D01*
X0160039Y0291614D02*
X0157835Y0291614D01*
X0157835Y0290039D01*
X0160039Y0290039D01*
X0160039Y0291614D01*
X0160039Y0291406D02*
X0157835Y0291406D01*
X0167087Y0286811D02*
X0167087Y0284606D01*
X0168661Y0284606D01*
X0168661Y0286811D01*
X0167087Y0286811D01*
X0167087Y0285268D02*
X0168661Y0285268D01*
X0173386Y0285268D02*
X0174961Y0285268D01*
X0174961Y0284606D02*
X0174961Y0286811D01*
X0173386Y0286811D01*
X0173386Y0284606D01*
X0174961Y0284606D01*
X0173898Y0305079D02*
X0173898Y0307283D01*
X0172323Y0307283D01*
X0172323Y0305079D01*
X0173898Y0305079D01*
X0173898Y0305726D02*
X0172323Y0305726D01*
X0167598Y0305726D02*
X0166024Y0305726D01*
X0166024Y0305079D02*
X0167598Y0305079D01*
X0167598Y0307283D01*
X0166024Y0307283D01*
X0166024Y0305079D01*
X0116417Y0305315D02*
X0116417Y0303110D01*
X0114843Y0303110D01*
X0114843Y0305315D01*
X0116417Y0305315D01*
X0116417Y0303680D02*
X0114843Y0303680D01*
X0110118Y0303680D02*
X0108543Y0303680D01*
X0108543Y0303110D02*
X0110118Y0303110D01*
X0110118Y0305315D01*
X0108543Y0305315D01*
X0108543Y0303110D01*
X0108543Y0309409D02*
X0110118Y0309409D01*
X0110118Y0311614D01*
X0108543Y0311614D01*
X0108543Y0309409D01*
X0108543Y0309818D02*
X0110118Y0309818D01*
X0114843Y0309818D02*
X0116417Y0309818D01*
X0116417Y0309409D02*
X0116417Y0311614D01*
X0114843Y0311614D01*
X0114843Y0309409D01*
X0116417Y0309409D01*
X0116732Y0258937D02*
X0114528Y0258937D01*
X0114528Y0257362D01*
X0116732Y0257362D01*
X0116732Y0258937D01*
X0116732Y0258674D02*
X0114528Y0258674D01*
X0110433Y0258674D02*
X0108228Y0258674D01*
X0108228Y0258937D02*
X0108228Y0257362D01*
X0110433Y0257362D01*
X0110433Y0258937D01*
X0108228Y0258937D01*
X0104134Y0258937D02*
X0104134Y0257362D01*
X0101929Y0257362D01*
X0101929Y0258937D01*
X0104134Y0258937D01*
X0104134Y0258674D02*
X0101929Y0258674D01*
X0101929Y0252638D02*
X0101929Y0251063D01*
X0104134Y0251063D01*
X0104134Y0252638D01*
X0101929Y0252638D01*
X0101929Y0252536D02*
X0104134Y0252536D01*
X0108228Y0252536D02*
X0110433Y0252536D01*
X0110433Y0252638D02*
X0108228Y0252638D01*
X0108228Y0251063D01*
X0110433Y0251063D01*
X0110433Y0252638D01*
X0114528Y0252638D02*
X0114528Y0251063D01*
X0116732Y0251063D01*
X0116732Y0252638D01*
X0114528Y0252638D01*
X0114528Y0252536D02*
X0116732Y0252536D01*
X0117283Y0236496D02*
X0117283Y0234921D01*
X0119488Y0234921D01*
X0119488Y0236496D01*
X0117283Y0236496D01*
X0117283Y0236170D02*
X0119488Y0236170D01*
X0119488Y0230197D02*
X0117283Y0230197D01*
X0117283Y0228622D01*
X0119488Y0228622D01*
X0119488Y0230197D01*
X0119488Y0230033D02*
X0117283Y0230033D01*
X0151850Y0229331D02*
X0151850Y0227126D01*
X0153425Y0227126D01*
X0153425Y0229331D01*
X0151850Y0229331D01*
X0151850Y0227987D02*
X0153425Y0227987D01*
X0158150Y0227987D02*
X0159724Y0227987D01*
X0159724Y0227126D02*
X0159724Y0229331D01*
X0158150Y0229331D01*
X0158150Y0227126D01*
X0159724Y0227126D01*
X0137205Y0166417D02*
X0135000Y0166417D01*
X0135000Y0164843D01*
X0137205Y0164843D01*
X0137205Y0166417D01*
X0137205Y0160118D02*
X0135000Y0160118D01*
X0135000Y0158543D01*
X0137205Y0158543D01*
X0137205Y0160118D01*
X0125079Y0164134D02*
X0125079Y0166339D01*
X0123504Y0166339D01*
X0123504Y0164134D01*
X0125079Y0164134D01*
X0125079Y0164569D02*
X0123504Y0164569D01*
X0118780Y0164569D02*
X0117205Y0164569D01*
X0117205Y0164134D02*
X0118780Y0164134D01*
X0118780Y0166339D01*
X0117205Y0166339D01*
X0117205Y0164134D01*
X0111693Y0164134D02*
X0111693Y0166339D01*
X0110118Y0166339D01*
X0110118Y0164134D01*
X0111693Y0164134D01*
X0111693Y0164569D02*
X0110118Y0164569D01*
X0105394Y0164569D02*
X0103819Y0164569D01*
X0103819Y0164134D02*
X0103819Y0166339D01*
X0105394Y0166339D01*
X0105394Y0164134D01*
X0103819Y0164134D01*
X0117992Y0143504D02*
X0117992Y0141299D01*
X0119567Y0141299D01*
X0119567Y0143504D01*
X0117992Y0143504D01*
X0117992Y0142066D02*
X0119567Y0142066D01*
X0124291Y0142066D02*
X0125866Y0142066D01*
X0125866Y0141299D02*
X0125866Y0143504D01*
X0124291Y0143504D01*
X0124291Y0141299D01*
X0125866Y0141299D01*
X0138543Y0073110D02*
X0140748Y0073110D01*
X0140748Y0071535D01*
X0138543Y0071535D01*
X0138543Y0073110D01*
X0138543Y0072510D02*
X0140748Y0072510D01*
X0140748Y0066811D02*
X0138543Y0066811D01*
X0138543Y0065236D01*
X0140748Y0065236D01*
X0140748Y0066811D01*
X0140748Y0066373D02*
X0138543Y0066373D01*
X0129724Y0065630D02*
X0129724Y0064055D01*
X0127520Y0064055D01*
X0127520Y0065630D01*
X0129724Y0065630D01*
X0129724Y0064327D02*
X0127520Y0064327D01*
X0127520Y0059331D02*
X0129724Y0059331D01*
X0129724Y0057756D01*
X0127520Y0057756D01*
X0127520Y0059331D01*
X0127520Y0058190D02*
X0129724Y0058190D01*
X0102638Y0062165D02*
X0102638Y0064370D01*
X0101063Y0064370D01*
X0101063Y0062165D01*
X0102638Y0062165D01*
X0102638Y0062281D02*
X0101063Y0062281D01*
X0101063Y0064327D02*
X0102638Y0064327D01*
X0096339Y0064327D02*
X0094764Y0064327D01*
X0094764Y0064370D02*
X0094764Y0062165D01*
X0096339Y0062165D01*
X0096339Y0064370D01*
X0094764Y0064370D01*
X0094764Y0062281D02*
X0096339Y0062281D01*
X0071142Y0026969D02*
X0069567Y0026969D01*
X0069567Y0024764D01*
X0071142Y0024764D01*
X0071142Y0026969D01*
X0071142Y0025458D02*
X0069567Y0025458D01*
X0064843Y0025458D02*
X0063268Y0025458D01*
X0063268Y0024764D02*
X0063268Y0026969D01*
X0064843Y0026969D01*
X0064843Y0024764D01*
X0063268Y0024764D01*
X0041614Y0084724D02*
X0041614Y0086929D01*
X0040039Y0086929D01*
X0040039Y0084724D01*
X0041614Y0084724D01*
X0041614Y0084784D02*
X0040039Y0084784D01*
X0040039Y0086830D02*
X0041614Y0086830D01*
X0035315Y0086830D02*
X0033740Y0086830D01*
X0033740Y0086929D02*
X0033740Y0084724D01*
X0035315Y0084724D01*
X0035315Y0086929D01*
X0033740Y0086929D01*
X0033740Y0084784D02*
X0035315Y0084784D01*
X0035315Y0096417D02*
X0035315Y0098622D01*
X0033740Y0098622D01*
X0033740Y0096417D01*
X0035315Y0096417D01*
X0035315Y0097059D02*
X0033740Y0097059D01*
X0040039Y0097059D02*
X0041614Y0097059D01*
X0041614Y0096417D02*
X0041614Y0098622D01*
X0040039Y0098622D01*
X0040039Y0096417D01*
X0041614Y0096417D01*
X0041614Y0108228D02*
X0041614Y0110433D01*
X0040039Y0110433D01*
X0040039Y0108228D01*
X0041614Y0108228D01*
X0041614Y0109334D02*
X0040039Y0109334D01*
X0035315Y0109334D02*
X0033740Y0109334D01*
X0033740Y0110433D02*
X0033740Y0108228D01*
X0035315Y0108228D01*
X0035315Y0110433D01*
X0033740Y0110433D01*
X0033740Y0120039D02*
X0035315Y0120039D01*
X0035315Y0122244D01*
X0033740Y0122244D01*
X0033740Y0120039D01*
X0033740Y0121608D02*
X0035315Y0121608D01*
X0040039Y0121608D02*
X0041614Y0121608D01*
X0041614Y0122244D02*
X0041614Y0120039D01*
X0040039Y0120039D01*
X0040039Y0122244D01*
X0041614Y0122244D01*
X0041614Y0131850D02*
X0041614Y0134055D01*
X0040039Y0134055D01*
X0040039Y0131850D01*
X0041614Y0131850D01*
X0041614Y0133883D02*
X0040039Y0133883D01*
X0035315Y0133883D02*
X0033740Y0133883D01*
X0033740Y0134055D02*
X0033740Y0131850D01*
X0035315Y0131850D01*
X0035315Y0134055D01*
X0033740Y0134055D01*
X0033740Y0143661D02*
X0035315Y0143661D01*
X0035315Y0145866D01*
X0033740Y0145866D01*
X0033740Y0143661D01*
X0033740Y0144111D02*
X0035315Y0144111D01*
X0040039Y0144111D02*
X0041614Y0144111D01*
X0041614Y0143661D02*
X0041614Y0145866D01*
X0040039Y0145866D01*
X0040039Y0143661D01*
X0041614Y0143661D01*
X0041614Y0155472D02*
X0041614Y0157677D01*
X0040039Y0157677D01*
X0040039Y0155472D01*
X0041614Y0155472D01*
X0041614Y0156386D02*
X0040039Y0156386D01*
X0035315Y0156386D02*
X0033740Y0156386D01*
X0033740Y0155472D02*
X0035315Y0155472D01*
X0035315Y0157677D01*
X0033740Y0157677D01*
X0033740Y0155472D01*
X0033740Y0166890D02*
X0035315Y0166890D01*
X0035315Y0169094D01*
X0033740Y0169094D01*
X0033740Y0166890D01*
X0033740Y0168660D02*
X0035315Y0168660D01*
X0040039Y0168660D02*
X0041614Y0168660D01*
X0041614Y0169094D02*
X0041614Y0166890D01*
X0040039Y0166890D01*
X0040039Y0169094D01*
X0041614Y0169094D01*
X0034528Y0175551D02*
X0034528Y0177756D01*
X0032953Y0177756D01*
X0032953Y0175551D01*
X0034528Y0175551D01*
X0034528Y0176843D02*
X0032953Y0176843D01*
X0028228Y0176843D02*
X0026654Y0176843D01*
X0026654Y0177756D02*
X0026654Y0175551D01*
X0028228Y0175551D01*
X0028228Y0177756D01*
X0026654Y0177756D01*
X0039252Y0194843D02*
X0040827Y0194843D01*
X0040827Y0197047D01*
X0039252Y0197047D01*
X0039252Y0194843D01*
X0039252Y0195255D02*
X0040827Y0195255D01*
X0045551Y0195255D02*
X0047126Y0195255D01*
X0047126Y0194843D02*
X0047126Y0197047D01*
X0045551Y0197047D01*
X0045551Y0194843D01*
X0047126Y0194843D01*
X0041535Y0209331D02*
X0039331Y0209331D01*
X0039331Y0210906D01*
X0041535Y0210906D01*
X0041535Y0209331D01*
X0041535Y0209576D02*
X0039331Y0209576D01*
X0039331Y0215630D02*
X0041535Y0215630D01*
X0041535Y0217205D01*
X0039331Y0217205D01*
X0039331Y0215630D01*
X0039331Y0215713D02*
X0041535Y0215713D01*
X0034528Y0220433D02*
X0034528Y0222638D01*
X0032953Y0222638D01*
X0032953Y0220433D01*
X0034528Y0220433D01*
X0034528Y0221850D02*
X0032953Y0221850D01*
X0028228Y0221850D02*
X0026654Y0221850D01*
X0026654Y0222638D02*
X0026654Y0220433D01*
X0028228Y0220433D01*
X0028228Y0222638D01*
X0026654Y0222638D01*
X0043583Y0236969D02*
X0043583Y0239173D01*
X0045157Y0239173D01*
X0045157Y0236969D01*
X0043583Y0236969D01*
X0043583Y0238216D02*
X0045157Y0238216D01*
X0049882Y0238216D02*
X0051457Y0238216D01*
X0051457Y0239173D02*
X0049882Y0239173D01*
X0049882Y0236969D01*
X0051457Y0236969D01*
X0051457Y0239173D01*
X0040748Y0254606D02*
X0038543Y0254606D01*
X0038543Y0256181D01*
X0040748Y0256181D01*
X0040748Y0254606D01*
X0040748Y0260906D02*
X0038543Y0260906D01*
X0038543Y0262480D01*
X0040748Y0262480D01*
X0040748Y0260906D01*
X0034528Y0267677D02*
X0034528Y0269882D01*
X0032953Y0269882D01*
X0032953Y0267677D01*
X0034528Y0267677D01*
X0034528Y0268902D02*
X0032953Y0268902D01*
X0028228Y0268902D02*
X0026654Y0268902D01*
X0026654Y0269882D02*
X0026654Y0267677D01*
X0028228Y0267677D01*
X0028228Y0269882D01*
X0026654Y0269882D01*
X0041614Y0290512D02*
X0041614Y0292717D01*
X0043189Y0292717D01*
X0043189Y0290512D01*
X0041614Y0290512D01*
X0041614Y0291406D02*
X0043189Y0291406D01*
X0047913Y0291406D02*
X0049488Y0291406D01*
X0049488Y0290512D02*
X0049488Y0292717D01*
X0047913Y0292717D01*
X0047913Y0290512D01*
X0049488Y0290512D01*
X0040748Y0302638D02*
X0038543Y0302638D01*
X0038543Y0304213D01*
X0040748Y0304213D01*
X0040748Y0302638D01*
X0040748Y0303680D02*
X0038543Y0303680D01*
X0038543Y0308937D02*
X0040748Y0308937D01*
X0040748Y0310512D01*
X0038543Y0310512D01*
X0038543Y0308937D01*
X0038543Y0309818D02*
X0040748Y0309818D01*
X0034528Y0314921D02*
X0034528Y0317126D01*
X0032953Y0317126D01*
X0032953Y0314921D01*
X0034528Y0314921D01*
X0034528Y0315955D02*
X0032953Y0315955D01*
X0028228Y0315955D02*
X0026654Y0315955D01*
X0026654Y0314921D02*
X0028228Y0314921D01*
X0028228Y0317126D01*
X0026654Y0317126D01*
X0026654Y0314921D01*
X0040433Y0334606D02*
X0040433Y0336811D01*
X0042008Y0336811D01*
X0042008Y0334606D01*
X0040433Y0334606D01*
X0040433Y0336412D02*
X0042008Y0336412D01*
X0046732Y0336412D02*
X0048307Y0336412D01*
X0048307Y0336811D02*
X0046732Y0336811D01*
X0046732Y0334606D01*
X0048307Y0334606D01*
X0048307Y0336811D01*
X0041142Y0349094D02*
X0038937Y0349094D01*
X0038937Y0350669D01*
X0041142Y0350669D01*
X0041142Y0349094D01*
X0041142Y0355394D02*
X0038937Y0355394D01*
X0038937Y0356969D01*
X0041142Y0356969D01*
X0041142Y0355394D01*
X0041142Y0356870D02*
X0038937Y0356870D01*
X0324291Y0321850D02*
X0324291Y0319646D01*
X0325866Y0319646D01*
X0325866Y0321850D01*
X0324291Y0321850D01*
X0324291Y0320046D02*
X0325866Y0320046D01*
X0330591Y0320046D02*
X0332165Y0320046D01*
X0332165Y0319646D02*
X0332165Y0321850D01*
X0330591Y0321850D01*
X0330591Y0319646D01*
X0332165Y0319646D01*
X0340906Y0321929D02*
X0343110Y0321929D01*
X0343110Y0323504D01*
X0340906Y0323504D01*
X0340906Y0321929D01*
X0340906Y0322092D02*
X0343110Y0322092D01*
X0346811Y0322092D02*
X0349016Y0322092D01*
X0349016Y0321929D02*
X0346811Y0321929D01*
X0346811Y0323504D01*
X0349016Y0323504D01*
X0349016Y0321929D01*
X0349016Y0315630D02*
X0346811Y0315630D01*
X0346811Y0314055D01*
X0349016Y0314055D01*
X0349016Y0315630D01*
X0343110Y0315630D02*
X0343110Y0314055D01*
X0340906Y0314055D01*
X0340906Y0315630D01*
X0343110Y0315630D01*
X0343110Y0309331D02*
X0340906Y0309331D01*
X0340906Y0307756D01*
X0343110Y0307756D01*
X0343110Y0309331D01*
X0343110Y0307772D02*
X0340906Y0307772D01*
X0346811Y0307772D02*
X0349016Y0307772D01*
X0349016Y0307756D02*
X0349016Y0309331D01*
X0346811Y0309331D01*
X0346811Y0307756D01*
X0349016Y0307756D01*
X0348701Y0299016D02*
X0347126Y0299016D01*
X0347126Y0296811D01*
X0348701Y0296811D01*
X0348701Y0299016D01*
X0348701Y0297543D02*
X0347126Y0297543D01*
X0346811Y0292795D02*
X0346811Y0291220D01*
X0349016Y0291220D01*
X0349016Y0292795D01*
X0346811Y0292795D01*
X0346811Y0291406D02*
X0349016Y0291406D01*
X0349016Y0286496D02*
X0346811Y0286496D01*
X0346811Y0284921D01*
X0349016Y0284921D01*
X0349016Y0286496D01*
X0349016Y0285268D02*
X0346811Y0285268D01*
X0343110Y0285268D02*
X0340906Y0285268D01*
X0340906Y0284921D02*
X0343110Y0284921D01*
X0343110Y0286496D01*
X0340906Y0286496D01*
X0340906Y0284921D01*
X0340906Y0291220D02*
X0343110Y0291220D01*
X0343110Y0292795D01*
X0340906Y0292795D01*
X0340906Y0291220D01*
X0340906Y0291406D02*
X0343110Y0291406D01*
X0353425Y0296811D02*
X0353425Y0299016D01*
X0355000Y0299016D01*
X0355000Y0296811D01*
X0353425Y0296811D01*
X0353425Y0297543D02*
X0355000Y0297543D01*
X0360906Y0278543D02*
X0360906Y0276339D01*
X0362480Y0276339D01*
X0362480Y0278543D01*
X0360906Y0278543D01*
X0360906Y0277085D02*
X0362480Y0277085D01*
X0367205Y0277085D02*
X0368780Y0277085D01*
X0368780Y0276339D02*
X0368780Y0278543D01*
X0367205Y0278543D01*
X0367205Y0276339D01*
X0368780Y0276339D01*
X0374370Y0275866D02*
X0376575Y0275866D01*
X0376575Y0277441D01*
X0374370Y0277441D01*
X0374370Y0275866D01*
X0374370Y0277085D02*
X0376575Y0277085D01*
X0376575Y0271142D02*
X0374370Y0271142D01*
X0374370Y0269567D01*
X0376575Y0269567D01*
X0376575Y0271142D01*
X0376575Y0270948D02*
X0374370Y0270948D01*
X0374764Y0260906D02*
X0376969Y0260906D01*
X0376969Y0259331D01*
X0374764Y0259331D01*
X0374764Y0260906D01*
X0374764Y0260719D02*
X0376969Y0260719D01*
X0376969Y0254606D02*
X0374764Y0254606D01*
X0374764Y0253031D01*
X0376969Y0253031D01*
X0376969Y0254606D01*
X0376969Y0254582D02*
X0374764Y0254582D01*
X0374370Y0240039D02*
X0376575Y0240039D01*
X0376575Y0238465D01*
X0374370Y0238465D01*
X0374370Y0240039D01*
X0374370Y0233740D02*
X0376575Y0233740D01*
X0376575Y0232165D01*
X0374370Y0232165D01*
X0374370Y0233740D01*
X0368780Y0238937D02*
X0368780Y0241142D01*
X0367205Y0241142D01*
X0367205Y0238937D01*
X0368780Y0238937D01*
X0368780Y0240262D02*
X0367205Y0240262D01*
X0362480Y0240262D02*
X0360906Y0240262D01*
X0360906Y0241142D02*
X0360906Y0238937D01*
X0362480Y0238937D01*
X0362480Y0241142D01*
X0360906Y0241142D01*
X0349016Y0240433D02*
X0346811Y0240433D01*
X0346811Y0238858D01*
X0349016Y0238858D01*
X0349016Y0240433D01*
X0349016Y0240262D02*
X0346811Y0240262D01*
X0343110Y0240262D02*
X0340906Y0240262D01*
X0340906Y0240433D02*
X0343110Y0240433D01*
X0343110Y0238858D01*
X0340906Y0238858D01*
X0340906Y0240433D01*
X0340906Y0234134D02*
X0343110Y0234134D01*
X0343110Y0232559D01*
X0340906Y0232559D01*
X0340906Y0234134D01*
X0340906Y0234125D02*
X0343110Y0234125D01*
X0346811Y0234134D02*
X0346811Y0232559D01*
X0349016Y0232559D01*
X0349016Y0234134D01*
X0346811Y0234134D01*
X0346811Y0234125D02*
X0349016Y0234125D01*
X0348701Y0223819D02*
X0347126Y0223819D01*
X0347126Y0221614D01*
X0348701Y0221614D01*
X0348701Y0223819D01*
X0348701Y0221850D02*
X0347126Y0221850D01*
X0346811Y0217598D02*
X0346811Y0216024D01*
X0349016Y0216024D01*
X0349016Y0217598D01*
X0346811Y0217598D01*
X0343110Y0217598D02*
X0343110Y0216024D01*
X0340906Y0216024D01*
X0340906Y0217598D01*
X0343110Y0217598D01*
X0343110Y0211299D02*
X0340906Y0211299D01*
X0340906Y0209724D01*
X0343110Y0209724D01*
X0343110Y0211299D01*
X0346811Y0211299D02*
X0346811Y0209724D01*
X0349016Y0209724D01*
X0349016Y0211299D01*
X0346811Y0211299D01*
X0346811Y0203425D02*
X0349016Y0203425D01*
X0349016Y0201850D01*
X0346811Y0201850D01*
X0346811Y0203425D01*
X0343110Y0203425D02*
X0340906Y0203425D01*
X0340906Y0201850D01*
X0343110Y0201850D01*
X0343110Y0203425D01*
X0343110Y0197126D02*
X0340906Y0197126D01*
X0340906Y0195551D01*
X0343110Y0195551D01*
X0343110Y0197126D01*
X0346811Y0197126D02*
X0349016Y0197126D01*
X0349016Y0195551D01*
X0346811Y0195551D01*
X0346811Y0197126D01*
X0347126Y0186417D02*
X0347126Y0184213D01*
X0348701Y0184213D01*
X0348701Y0186417D01*
X0347126Y0186417D01*
X0347126Y0185026D02*
X0348701Y0185026D01*
X0349016Y0180197D02*
X0346811Y0180197D01*
X0346811Y0178622D01*
X0349016Y0178622D01*
X0349016Y0180197D01*
X0349016Y0178889D02*
X0346811Y0178889D01*
X0343110Y0178889D02*
X0340906Y0178889D01*
X0340906Y0178622D02*
X0343110Y0178622D01*
X0343110Y0180197D01*
X0340906Y0180197D01*
X0340906Y0178622D01*
X0340906Y0173898D02*
X0340906Y0172323D01*
X0343110Y0172323D01*
X0343110Y0173898D01*
X0340906Y0173898D01*
X0340906Y0172752D02*
X0343110Y0172752D01*
X0346811Y0172752D02*
X0349016Y0172752D01*
X0349016Y0172323D02*
X0346811Y0172323D01*
X0346811Y0173898D01*
X0349016Y0173898D01*
X0349016Y0172323D01*
X0349016Y0166024D02*
X0346811Y0166024D01*
X0346811Y0164449D01*
X0349016Y0164449D01*
X0349016Y0166024D01*
X0349016Y0164569D02*
X0346811Y0164569D01*
X0343110Y0164569D02*
X0340906Y0164569D01*
X0340906Y0164449D02*
X0343110Y0164449D01*
X0343110Y0166024D01*
X0340906Y0166024D01*
X0340906Y0164449D01*
X0340906Y0159724D02*
X0343110Y0159724D01*
X0343110Y0158150D01*
X0340906Y0158150D01*
X0340906Y0159724D01*
X0340906Y0158432D02*
X0343110Y0158432D01*
X0346811Y0158432D02*
X0349016Y0158432D01*
X0349016Y0158150D02*
X0349016Y0159724D01*
X0346811Y0159724D01*
X0346811Y0158150D01*
X0349016Y0158150D01*
X0348701Y0149016D02*
X0347126Y0149016D01*
X0347126Y0146811D01*
X0348701Y0146811D01*
X0348701Y0149016D01*
X0348701Y0148203D02*
X0347126Y0148203D01*
X0346811Y0142795D02*
X0346811Y0141220D01*
X0349016Y0141220D01*
X0349016Y0142795D01*
X0346811Y0142795D01*
X0346811Y0142066D02*
X0349016Y0142066D01*
X0353425Y0146811D02*
X0353425Y0149016D01*
X0355000Y0149016D01*
X0355000Y0146811D01*
X0353425Y0146811D01*
X0353425Y0148203D02*
X0355000Y0148203D01*
X0343110Y0142795D02*
X0340906Y0142795D01*
X0340906Y0141220D01*
X0343110Y0141220D01*
X0343110Y0142795D01*
X0343110Y0142066D02*
X0340906Y0142066D01*
X0340906Y0136496D02*
X0340906Y0134921D01*
X0343110Y0134921D01*
X0343110Y0136496D01*
X0340906Y0136496D01*
X0340906Y0135928D02*
X0343110Y0135928D01*
X0346811Y0135928D02*
X0349016Y0135928D01*
X0349016Y0136496D02*
X0346811Y0136496D01*
X0346811Y0134921D01*
X0349016Y0134921D01*
X0349016Y0136496D01*
X0349016Y0128622D02*
X0346811Y0128622D01*
X0346811Y0127047D01*
X0349016Y0127047D01*
X0349016Y0128622D01*
X0349016Y0127745D02*
X0346811Y0127745D01*
X0343110Y0127745D02*
X0340906Y0127745D01*
X0340906Y0127047D02*
X0343110Y0127047D01*
X0343110Y0128622D01*
X0340906Y0128622D01*
X0340906Y0127047D01*
X0340906Y0122323D02*
X0343110Y0122323D01*
X0343110Y0120748D01*
X0340906Y0120748D01*
X0340906Y0122323D01*
X0340906Y0121608D02*
X0343110Y0121608D01*
X0346811Y0121608D02*
X0349016Y0121608D01*
X0349016Y0122323D02*
X0346811Y0122323D01*
X0346811Y0120748D01*
X0349016Y0120748D01*
X0349016Y0122323D01*
X0348701Y0111614D02*
X0347126Y0111614D01*
X0347126Y0109409D01*
X0348701Y0109409D01*
X0348701Y0111614D01*
X0348701Y0111379D02*
X0347126Y0111379D01*
X0346811Y0105394D02*
X0346811Y0103819D01*
X0349016Y0103819D01*
X0349016Y0105394D01*
X0346811Y0105394D01*
X0346811Y0105242D02*
X0349016Y0105242D01*
X0353425Y0109409D02*
X0353425Y0111614D01*
X0355000Y0111614D01*
X0355000Y0109409D01*
X0353425Y0109409D01*
X0353425Y0111379D02*
X0355000Y0111379D01*
X0343110Y0105394D02*
X0343110Y0103819D01*
X0340906Y0103819D01*
X0340906Y0105394D01*
X0343110Y0105394D01*
X0343110Y0105242D02*
X0340906Y0105242D01*
X0340906Y0099094D02*
X0340906Y0097520D01*
X0343110Y0097520D01*
X0343110Y0099094D01*
X0340906Y0099094D01*
X0346811Y0099094D02*
X0346811Y0097520D01*
X0349016Y0097520D01*
X0349016Y0099094D01*
X0346811Y0099094D01*
X0346811Y0091220D02*
X0349016Y0091220D01*
X0349016Y0089646D01*
X0346811Y0089646D01*
X0346811Y0091220D01*
X0346811Y0090922D02*
X0349016Y0090922D01*
X0349016Y0084921D02*
X0346811Y0084921D01*
X0346811Y0083346D01*
X0349016Y0083346D01*
X0349016Y0084921D01*
X0349016Y0084784D02*
X0346811Y0084784D01*
X0343110Y0084784D02*
X0340906Y0084784D01*
X0340906Y0084921D02*
X0343110Y0084921D01*
X0343110Y0083346D01*
X0340906Y0083346D01*
X0340906Y0084921D01*
X0340906Y0089646D02*
X0343110Y0089646D01*
X0343110Y0091220D01*
X0340906Y0091220D01*
X0340906Y0089646D01*
X0340906Y0090922D02*
X0343110Y0090922D01*
X0332165Y0094843D02*
X0332165Y0097047D01*
X0330591Y0097047D01*
X0330591Y0094843D01*
X0332165Y0094843D01*
X0332165Y0095013D02*
X0330591Y0095013D01*
X0325866Y0095013D02*
X0324291Y0095013D01*
X0324291Y0094843D02*
X0324291Y0097047D01*
X0325866Y0097047D01*
X0325866Y0094843D01*
X0324291Y0094843D01*
X0347126Y0074606D02*
X0347126Y0072402D01*
X0348701Y0072402D01*
X0348701Y0074606D01*
X0347126Y0074606D01*
X0347126Y0074556D02*
X0348701Y0074556D01*
X0348701Y0072510D02*
X0347126Y0072510D01*
X0346811Y0068386D02*
X0346811Y0066811D01*
X0349016Y0066811D01*
X0349016Y0068386D01*
X0346811Y0068386D01*
X0343110Y0068386D02*
X0340906Y0068386D01*
X0340906Y0066811D01*
X0343110Y0066811D01*
X0343110Y0068386D01*
X0343110Y0062087D02*
X0340906Y0062087D01*
X0340906Y0060512D01*
X0343110Y0060512D01*
X0343110Y0062087D01*
X0346811Y0062087D02*
X0346811Y0060512D01*
X0349016Y0060512D01*
X0349016Y0062087D01*
X0346811Y0062087D01*
X0353425Y0072402D02*
X0353425Y0074606D01*
X0355000Y0074606D01*
X0355000Y0072402D01*
X0353425Y0072402D01*
X0353425Y0072510D02*
X0355000Y0072510D01*
X0355000Y0074556D02*
X0353425Y0074556D01*
X0360906Y0090512D02*
X0362480Y0090512D01*
X0362480Y0092717D01*
X0360906Y0092717D01*
X0360906Y0090512D01*
X0360906Y0090922D02*
X0362480Y0090922D01*
X0367205Y0090922D02*
X0368780Y0090922D01*
X0368780Y0090512D02*
X0368780Y0092717D01*
X0367205Y0092717D01*
X0367205Y0090512D01*
X0368780Y0090512D01*
X0374370Y0090827D02*
X0376575Y0090827D01*
X0376575Y0089252D01*
X0374370Y0089252D01*
X0374370Y0090827D01*
X0374370Y0084528D02*
X0376575Y0084528D01*
X0376575Y0082953D01*
X0374370Y0082953D01*
X0374370Y0084528D01*
X0374370Y0074291D02*
X0376575Y0074291D01*
X0376575Y0072717D01*
X0374370Y0072717D01*
X0374370Y0074291D01*
X0374370Y0067992D02*
X0376575Y0067992D01*
X0376575Y0066417D01*
X0374370Y0066417D01*
X0374370Y0067992D01*
X0374370Y0103425D02*
X0376575Y0103425D01*
X0376575Y0105000D01*
X0374370Y0105000D01*
X0374370Y0103425D01*
X0374370Y0109724D02*
X0376575Y0109724D01*
X0376575Y0111299D01*
X0374370Y0111299D01*
X0374370Y0109724D01*
X0374370Y0119961D02*
X0376575Y0119961D01*
X0376575Y0121535D01*
X0374370Y0121535D01*
X0374370Y0119961D01*
X0374370Y0126260D02*
X0376575Y0126260D01*
X0376575Y0127835D01*
X0374370Y0127835D01*
X0374370Y0126260D01*
X0374370Y0127745D02*
X0376575Y0127745D01*
X0368780Y0127913D02*
X0368780Y0130118D01*
X0367205Y0130118D01*
X0367205Y0127913D01*
X0368780Y0127913D01*
X0368780Y0129791D02*
X0367205Y0129791D01*
X0362480Y0129791D02*
X0360906Y0129791D01*
X0360906Y0130118D02*
X0360906Y0127913D01*
X0362480Y0127913D01*
X0362480Y0130118D01*
X0360906Y0130118D01*
X0374370Y0140827D02*
X0374370Y0142402D01*
X0376575Y0142402D01*
X0376575Y0140827D01*
X0374370Y0140827D01*
X0374370Y0142066D02*
X0376575Y0142066D01*
X0376575Y0147126D02*
X0376575Y0148701D01*
X0374370Y0148701D01*
X0374370Y0147126D01*
X0376575Y0147126D01*
X0376575Y0148203D02*
X0374370Y0148203D01*
X0374370Y0157362D02*
X0376575Y0157362D01*
X0376575Y0158937D01*
X0374370Y0158937D01*
X0374370Y0157362D01*
X0374370Y0158432D02*
X0376575Y0158432D01*
X0376575Y0163661D02*
X0376575Y0165236D01*
X0374370Y0165236D01*
X0374370Y0163661D01*
X0376575Y0163661D01*
X0376575Y0164569D02*
X0374370Y0164569D01*
X0368780Y0164569D02*
X0367205Y0164569D01*
X0367205Y0164528D02*
X0368780Y0164528D01*
X0368780Y0166732D01*
X0367205Y0166732D01*
X0367205Y0164528D01*
X0367205Y0166615D02*
X0368780Y0166615D01*
X0362480Y0166615D02*
X0360906Y0166615D01*
X0360906Y0166732D02*
X0360906Y0164528D01*
X0362480Y0164528D01*
X0362480Y0166732D01*
X0360906Y0166732D01*
X0360906Y0164569D02*
X0362480Y0164569D01*
X0374370Y0178228D02*
X0376575Y0178228D01*
X0376575Y0179803D01*
X0374370Y0179803D01*
X0374370Y0178228D01*
X0374370Y0178889D02*
X0376575Y0178889D01*
X0376575Y0184528D02*
X0376575Y0186102D01*
X0374370Y0186102D01*
X0374370Y0184528D01*
X0376575Y0184528D01*
X0376575Y0185026D02*
X0374370Y0185026D01*
X0374370Y0194764D02*
X0376575Y0194764D01*
X0376575Y0196339D01*
X0374370Y0196339D01*
X0374370Y0194764D01*
X0374370Y0195255D02*
X0376575Y0195255D01*
X0376575Y0201063D02*
X0376575Y0202638D01*
X0374370Y0202638D01*
X0374370Y0201063D01*
X0376575Y0201063D01*
X0376575Y0201393D02*
X0374370Y0201393D01*
X0368780Y0202323D02*
X0368780Y0204528D01*
X0367205Y0204528D01*
X0367205Y0202323D01*
X0368780Y0202323D01*
X0368780Y0203438D02*
X0367205Y0203438D01*
X0362480Y0203438D02*
X0360906Y0203438D01*
X0360906Y0204528D02*
X0360906Y0202323D01*
X0362480Y0202323D01*
X0362480Y0204528D01*
X0360906Y0204528D01*
X0374370Y0215630D02*
X0376575Y0215630D01*
X0376575Y0217205D01*
X0374370Y0217205D01*
X0374370Y0215630D01*
X0374370Y0215713D02*
X0376575Y0215713D01*
X0376575Y0221929D02*
X0376575Y0223504D01*
X0374370Y0223504D01*
X0374370Y0221929D01*
X0376575Y0221929D01*
X0355000Y0221850D02*
X0353425Y0221850D01*
X0353425Y0221614D02*
X0353425Y0223819D01*
X0355000Y0223819D01*
X0355000Y0221614D01*
X0353425Y0221614D01*
X0332165Y0208858D02*
X0330591Y0208858D01*
X0330591Y0206654D01*
X0332165Y0206654D01*
X0332165Y0208858D01*
X0332165Y0207530D02*
X0330591Y0207530D01*
X0325866Y0207530D02*
X0324291Y0207530D01*
X0324291Y0206654D02*
X0324291Y0208858D01*
X0325866Y0208858D01*
X0325866Y0206654D01*
X0324291Y0206654D01*
X0353425Y0186417D02*
X0353425Y0184213D01*
X0355000Y0184213D01*
X0355000Y0186417D01*
X0353425Y0186417D01*
X0353425Y0185026D02*
X0355000Y0185026D01*
X0332165Y0171457D02*
X0330591Y0171457D01*
X0330591Y0169252D01*
X0332165Y0169252D01*
X0332165Y0171457D01*
X0332165Y0170706D02*
X0330591Y0170706D01*
X0325866Y0170706D02*
X0324291Y0170706D01*
X0324291Y0171457D02*
X0324291Y0169252D01*
X0325866Y0169252D01*
X0325866Y0171457D01*
X0324291Y0171457D01*
X0324291Y0134055D02*
X0324291Y0131850D01*
X0325866Y0131850D01*
X0325866Y0134055D01*
X0324291Y0134055D01*
X0324291Y0133883D02*
X0325866Y0133883D01*
X0330591Y0133883D02*
X0332165Y0133883D01*
X0332165Y0134055D02*
X0330591Y0134055D01*
X0330591Y0131850D01*
X0332165Y0131850D01*
X0332165Y0134055D01*
X0332559Y0059252D02*
X0330984Y0059252D01*
X0330984Y0057047D01*
X0332559Y0057047D01*
X0332559Y0059252D01*
X0332559Y0058190D02*
X0330984Y0058190D01*
X0326260Y0058190D02*
X0324685Y0058190D01*
X0324685Y0059252D02*
X0324685Y0057047D01*
X0326260Y0057047D01*
X0326260Y0059252D01*
X0324685Y0059252D01*
X0321063Y0038858D02*
X0318858Y0038858D01*
X0318858Y0037283D01*
X0321063Y0037283D01*
X0321063Y0038858D01*
X0321063Y0037732D02*
X0318858Y0037732D01*
X0318858Y0032559D02*
X0318858Y0030984D01*
X0321063Y0030984D01*
X0321063Y0032559D01*
X0318858Y0032559D01*
X0318858Y0031595D02*
X0321063Y0031595D01*
X0309252Y0031595D02*
X0307047Y0031595D01*
X0307047Y0030984D02*
X0309252Y0030984D01*
X0309252Y0032559D01*
X0307047Y0032559D01*
X0307047Y0030984D01*
X0307047Y0037283D02*
X0309252Y0037283D01*
X0309252Y0038858D01*
X0307047Y0038858D01*
X0307047Y0037283D01*
X0307047Y0037732D02*
X0309252Y0037732D01*
X0297441Y0037732D02*
X0295236Y0037732D01*
X0295236Y0037283D02*
X0297441Y0037283D01*
X0297441Y0038858D01*
X0295236Y0038858D01*
X0295236Y0037283D01*
X0295236Y0032559D02*
X0295236Y0030984D01*
X0297441Y0030984D01*
X0297441Y0032559D01*
X0295236Y0032559D01*
X0295236Y0031595D02*
X0297441Y0031595D01*
X0285630Y0031595D02*
X0283425Y0031595D01*
X0283425Y0030984D02*
X0285630Y0030984D01*
X0285630Y0032559D01*
X0283425Y0032559D01*
X0283425Y0030984D01*
X0283425Y0037283D02*
X0285630Y0037283D01*
X0285630Y0038858D01*
X0283425Y0038858D01*
X0283425Y0037283D01*
X0283425Y0037732D02*
X0285630Y0037732D01*
X0265945Y0037732D02*
X0263740Y0037732D01*
X0263740Y0037283D02*
X0265945Y0037283D01*
X0265945Y0038858D01*
X0263740Y0038858D01*
X0263740Y0037283D01*
X0263740Y0032559D02*
X0263740Y0030984D01*
X0265945Y0030984D01*
X0265945Y0032559D01*
X0263740Y0032559D01*
X0263740Y0031595D02*
X0265945Y0031595D01*
X0254134Y0031595D02*
X0251929Y0031595D01*
X0251929Y0030984D02*
X0254134Y0030984D01*
X0254134Y0032559D01*
X0251929Y0032559D01*
X0251929Y0030984D01*
X0251929Y0037283D02*
X0254134Y0037283D01*
X0254134Y0038858D01*
X0251929Y0038858D01*
X0251929Y0037283D01*
X0251929Y0037732D02*
X0254134Y0037732D01*
X0242323Y0037732D02*
X0240118Y0037732D01*
X0240118Y0037283D02*
X0242323Y0037283D01*
X0242323Y0038858D01*
X0240118Y0038858D01*
X0240118Y0037283D01*
X0240118Y0032559D02*
X0240118Y0030984D01*
X0242323Y0030984D01*
X0242323Y0032559D01*
X0240118Y0032559D01*
X0240118Y0031595D02*
X0242323Y0031595D01*
X0230512Y0031595D02*
X0228307Y0031595D01*
X0228307Y0030984D02*
X0230512Y0030984D01*
X0230512Y0032559D01*
X0228307Y0032559D01*
X0228307Y0030984D01*
X0228307Y0037283D02*
X0230512Y0037283D01*
X0230512Y0038858D01*
X0228307Y0038858D01*
X0228307Y0037283D01*
X0228307Y0037732D02*
X0230512Y0037732D01*
X0211220Y0037732D02*
X0209016Y0037732D01*
X0209016Y0037283D02*
X0211220Y0037283D01*
X0211220Y0038858D01*
X0209016Y0038858D01*
X0209016Y0037283D01*
X0204921Y0037283D02*
X0202717Y0037283D01*
X0202717Y0038858D01*
X0204921Y0038858D01*
X0204921Y0037283D01*
X0204921Y0037732D02*
X0202717Y0037732D01*
X0202717Y0032559D02*
X0202717Y0030984D01*
X0204921Y0030984D01*
X0204921Y0032559D01*
X0202717Y0032559D01*
X0202717Y0031595D02*
X0204921Y0031595D01*
X0209016Y0031595D02*
X0211220Y0031595D01*
X0211220Y0030984D02*
X0209016Y0030984D01*
X0209016Y0032559D01*
X0211220Y0032559D01*
X0211220Y0030984D01*
X0187205Y0030984D02*
X0185000Y0030984D01*
X0185000Y0032559D01*
X0187205Y0032559D01*
X0187205Y0030984D01*
X0187205Y0031595D02*
X0185000Y0031595D01*
X0181299Y0031595D02*
X0179094Y0031595D01*
X0179094Y0030984D02*
X0181299Y0030984D01*
X0181299Y0032559D01*
X0179094Y0032559D01*
X0179094Y0030984D01*
X0179094Y0037283D02*
X0181299Y0037283D01*
X0181299Y0038858D01*
X0179094Y0038858D01*
X0179094Y0037283D01*
X0179094Y0037732D02*
X0181299Y0037732D01*
X0185000Y0037732D02*
X0187205Y0037732D01*
X0187205Y0037283D02*
X0185000Y0037283D01*
X0185000Y0038858D01*
X0187205Y0038858D01*
X0187205Y0037283D01*
X0324685Y0244449D02*
X0324685Y0246654D01*
X0326260Y0246654D01*
X0326260Y0244449D01*
X0324685Y0244449D01*
X0324685Y0246399D02*
X0326260Y0246399D01*
X0330984Y0246399D02*
X0332559Y0246399D01*
X0332559Y0246654D02*
X0330984Y0246654D01*
X0330984Y0244449D01*
X0332559Y0244449D01*
X0332559Y0246654D01*
X0340906Y0247126D02*
X0343110Y0247126D01*
X0343110Y0248701D01*
X0340906Y0248701D01*
X0340906Y0247126D01*
X0340906Y0248445D02*
X0343110Y0248445D01*
X0346811Y0248445D02*
X0349016Y0248445D01*
X0349016Y0248701D02*
X0346811Y0248701D01*
X0346811Y0247126D01*
X0349016Y0247126D01*
X0349016Y0248701D01*
X0349016Y0253425D02*
X0346811Y0253425D01*
X0346811Y0255000D01*
X0349016Y0255000D01*
X0349016Y0253425D01*
X0349016Y0254582D02*
X0346811Y0254582D01*
X0343110Y0254582D02*
X0340906Y0254582D01*
X0340906Y0255000D02*
X0340906Y0253425D01*
X0343110Y0253425D01*
X0343110Y0255000D01*
X0340906Y0255000D01*
X0347126Y0259016D02*
X0347126Y0261220D01*
X0348701Y0261220D01*
X0348701Y0259016D01*
X0347126Y0259016D01*
X0347126Y0260719D02*
X0348701Y0260719D01*
X0353425Y0260719D02*
X0355000Y0260719D01*
X0355000Y0261220D02*
X0353425Y0261220D01*
X0353425Y0259016D01*
X0355000Y0259016D01*
X0355000Y0261220D01*
X0349016Y0269961D02*
X0346811Y0269961D01*
X0346811Y0271535D01*
X0349016Y0271535D01*
X0349016Y0269961D01*
X0349016Y0270948D02*
X0346811Y0270948D01*
X0343110Y0270948D02*
X0340906Y0270948D01*
X0340906Y0271535D02*
X0343110Y0271535D01*
X0343110Y0269961D01*
X0340906Y0269961D01*
X0340906Y0271535D01*
X0340906Y0276260D02*
X0343110Y0276260D01*
X0343110Y0277835D01*
X0340906Y0277835D01*
X0340906Y0276260D01*
X0340906Y0277085D02*
X0343110Y0277085D01*
X0346811Y0277085D02*
X0349016Y0277085D01*
X0349016Y0277835D02*
X0346811Y0277835D01*
X0346811Y0276260D01*
X0349016Y0276260D01*
X0349016Y0277835D01*
X0332165Y0281850D02*
X0332165Y0284055D01*
X0330591Y0284055D01*
X0330591Y0281850D01*
X0332165Y0281850D01*
X0332165Y0283223D02*
X0330591Y0283223D01*
X0325866Y0283223D02*
X0324291Y0283223D01*
X0324291Y0284055D02*
X0324291Y0281850D01*
X0325866Y0281850D01*
X0325866Y0284055D01*
X0324291Y0284055D01*
X0360906Y0314921D02*
X0362480Y0314921D01*
X0362480Y0317126D01*
X0360906Y0317126D01*
X0360906Y0314921D01*
X0360906Y0315955D02*
X0362480Y0315955D01*
X0367205Y0315955D02*
X0368780Y0315955D01*
X0368780Y0314921D02*
X0368780Y0317126D01*
X0367205Y0317126D01*
X0367205Y0314921D01*
X0368780Y0314921D01*
X0374370Y0315236D02*
X0374370Y0313661D01*
X0376575Y0313661D01*
X0376575Y0315236D01*
X0374370Y0315236D01*
X0374370Y0313909D02*
X0376575Y0313909D01*
X0376575Y0308937D02*
X0374370Y0308937D01*
X0374370Y0307362D01*
X0376575Y0307362D01*
X0376575Y0308937D01*
X0376575Y0307772D02*
X0374370Y0307772D01*
X0374370Y0298701D02*
X0376575Y0298701D01*
X0376575Y0297126D01*
X0374370Y0297126D01*
X0374370Y0298701D01*
X0374370Y0297543D02*
X0376575Y0297543D01*
X0376575Y0292402D02*
X0374370Y0292402D01*
X0374370Y0290827D01*
X0376575Y0290827D01*
X0376575Y0292402D01*
X0376575Y0291406D02*
X0374370Y0291406D01*
X0374370Y0327835D02*
X0376575Y0327835D01*
X0376575Y0329409D01*
X0374370Y0329409D01*
X0374370Y0327835D01*
X0374370Y0328229D02*
X0376575Y0328229D01*
X0376575Y0334134D02*
X0376575Y0335709D01*
X0374370Y0335709D01*
X0374370Y0334134D01*
X0376575Y0334134D01*
X0376575Y0334367D02*
X0374370Y0334367D01*
X0374370Y0344370D02*
X0376575Y0344370D01*
X0376575Y0345945D01*
X0374370Y0345945D01*
X0374370Y0344370D01*
X0374370Y0344595D02*
X0376575Y0344595D01*
X0376575Y0350669D02*
X0376575Y0352244D01*
X0374370Y0352244D01*
X0374370Y0350669D01*
X0376575Y0350669D01*
X0376575Y0350733D02*
X0374370Y0350733D01*
X0368780Y0351929D02*
X0368780Y0354134D01*
X0367205Y0354134D01*
X0367205Y0351929D01*
X0368780Y0351929D01*
X0368780Y0352778D02*
X0367205Y0352778D01*
X0362480Y0352778D02*
X0360906Y0352778D01*
X0360906Y0351929D02*
X0362480Y0351929D01*
X0362480Y0354134D01*
X0360906Y0354134D01*
X0360906Y0351929D01*
X0349016Y0351457D02*
X0349016Y0353031D01*
X0346811Y0353031D01*
X0346811Y0351457D01*
X0349016Y0351457D01*
X0349016Y0352778D02*
X0346811Y0352778D01*
X0343110Y0352778D02*
X0340906Y0352778D01*
X0340906Y0353031D02*
X0343110Y0353031D01*
X0343110Y0351457D01*
X0340906Y0351457D01*
X0340906Y0353031D01*
X0340906Y0346732D02*
X0343110Y0346732D01*
X0343110Y0345157D01*
X0340906Y0345157D01*
X0340906Y0346732D01*
X0340906Y0346641D02*
X0343110Y0346641D01*
X0346811Y0346641D02*
X0349016Y0346641D01*
X0349016Y0346732D02*
X0346811Y0346732D01*
X0346811Y0345157D01*
X0349016Y0345157D01*
X0349016Y0346732D01*
X0348701Y0336024D02*
X0347126Y0336024D01*
X0347126Y0333819D01*
X0348701Y0333819D01*
X0348701Y0336024D01*
X0348701Y0334367D02*
X0347126Y0334367D01*
X0346811Y0329803D02*
X0346811Y0328228D01*
X0349016Y0328228D01*
X0349016Y0329803D01*
X0346811Y0329803D01*
X0346811Y0328229D02*
X0349016Y0328229D01*
X0353425Y0333819D02*
X0353425Y0336024D01*
X0355000Y0336024D01*
X0355000Y0333819D01*
X0353425Y0333819D01*
X0353425Y0334367D02*
X0355000Y0334367D01*
X0343110Y0329803D02*
X0340906Y0329803D01*
X0340906Y0328228D01*
X0343110Y0328228D01*
X0343110Y0329803D01*
X0343110Y0328229D02*
X0340906Y0328229D01*
D13*
X0134882Y0134094D03*
X0131732Y0134094D03*
X0128583Y0134094D03*
X0125433Y0134094D03*
X0122283Y0134094D03*
X0119134Y0134094D03*
X0115984Y0134094D03*
X0112835Y0134094D03*
X0109685Y0134094D03*
X0106535Y0134094D03*
X0103386Y0134094D03*
X0100236Y0134094D03*
X0097087Y0134094D03*
X0093937Y0134094D03*
X0090787Y0134094D03*
X0087638Y0134094D03*
X0087638Y0072677D03*
X0090787Y0072677D03*
X0093937Y0072677D03*
X0097087Y0072677D03*
X0100236Y0072677D03*
X0103386Y0072677D03*
X0106535Y0072677D03*
X0109685Y0072677D03*
X0112835Y0072677D03*
X0115984Y0072677D03*
X0119134Y0072677D03*
X0122283Y0072677D03*
X0125433Y0072677D03*
X0128583Y0072677D03*
X0131732Y0072677D03*
X0134882Y0072677D03*
D14*
X0141969Y0079764D03*
X0141969Y0082913D03*
X0141969Y0086063D03*
X0141969Y0089213D03*
X0141969Y0092362D03*
X0141969Y0095512D03*
X0141969Y0098661D03*
X0141969Y0101811D03*
X0141969Y0104961D03*
X0141969Y0108110D03*
X0141969Y0111260D03*
X0141969Y0114409D03*
X0141969Y0117559D03*
X0141969Y0120709D03*
X0141969Y0123858D03*
X0141969Y0127008D03*
X0080551Y0127008D03*
X0080551Y0123858D03*
X0080551Y0120709D03*
X0080551Y0117559D03*
X0080551Y0114409D03*
X0080551Y0111260D03*
X0080551Y0108110D03*
X0080551Y0104961D03*
X0080551Y0101811D03*
X0080551Y0098661D03*
X0080551Y0095512D03*
X0080551Y0092362D03*
X0080551Y0089213D03*
X0080551Y0086063D03*
X0080551Y0082913D03*
X0080551Y0079764D03*
D15*
X0106969Y0155433D03*
X0121929Y0155433D03*
D16*
X0120866Y0368649D02*
X0120866Y0373005D01*
X0115866Y0373005D02*
X0115866Y0368649D01*
X0110866Y0368649D02*
X0110866Y0373005D01*
X0105866Y0373005D02*
X0105866Y0368649D01*
X0100866Y0368649D02*
X0100866Y0373005D01*
X0095866Y0373005D02*
X0095866Y0368649D01*
X0090866Y0368649D02*
X0090866Y0373005D01*
X0085866Y0373005D02*
X0085866Y0368649D01*
X0080866Y0368649D02*
X0080866Y0373005D01*
X0075866Y0373005D02*
X0075866Y0368649D01*
X0075866Y0388649D02*
X0075866Y0393005D01*
X0080866Y0393005D02*
X0080866Y0388649D01*
X0085866Y0388649D02*
X0085866Y0393005D01*
X0090866Y0393005D02*
X0090866Y0388649D01*
X0095866Y0388649D02*
X0095866Y0393005D01*
X0100866Y0393005D02*
X0100866Y0388649D01*
X0105866Y0388649D02*
X0105866Y0393005D01*
X0110866Y0393005D02*
X0110866Y0388649D01*
X0115866Y0388649D02*
X0115866Y0393005D01*
X0120866Y0393005D02*
X0120866Y0388649D01*
X0125866Y0388649D02*
X0125866Y0393005D01*
X0130866Y0393005D02*
X0130866Y0388649D01*
X0135866Y0388649D02*
X0135866Y0393005D01*
X0140866Y0393005D02*
X0140866Y0388649D01*
X0145866Y0388649D02*
X0145866Y0393005D01*
X0150866Y0393005D02*
X0150866Y0388649D01*
X0155866Y0388649D02*
X0155866Y0393005D01*
X0160866Y0393005D02*
X0160866Y0388649D01*
X0165866Y0388649D02*
X0165866Y0393005D01*
X0170866Y0393005D02*
X0170866Y0388649D01*
X0170866Y0373005D02*
X0170866Y0368649D01*
X0165866Y0368649D02*
X0165866Y0373005D01*
X0160866Y0373005D02*
X0160866Y0368649D01*
X0155866Y0368649D02*
X0155866Y0373005D01*
X0150866Y0373005D02*
X0150866Y0368649D01*
X0145866Y0368649D02*
X0145866Y0373005D01*
X0140866Y0373005D02*
X0140866Y0368649D01*
X0135866Y0368649D02*
X0135866Y0373005D01*
X0130866Y0373005D02*
X0130866Y0368649D01*
X0125866Y0368649D02*
X0125866Y0373005D01*
X0231122Y0373556D02*
X0231122Y0369200D01*
X0236122Y0369200D02*
X0236122Y0373556D01*
X0241122Y0373556D02*
X0241122Y0369200D01*
X0246122Y0369200D02*
X0246122Y0373556D01*
X0251122Y0373556D02*
X0251122Y0369200D01*
X0256122Y0369200D02*
X0256122Y0373556D01*
X0261122Y0373556D02*
X0261122Y0369200D01*
X0266122Y0369200D02*
X0266122Y0373556D01*
X0271122Y0373556D02*
X0271122Y0369200D01*
X0276122Y0369200D02*
X0276122Y0373556D01*
X0281122Y0373556D02*
X0281122Y0369200D01*
X0286122Y0369200D02*
X0286122Y0373556D01*
X0291122Y0373556D02*
X0291122Y0369200D01*
X0296122Y0369200D02*
X0296122Y0373556D01*
X0301122Y0373556D02*
X0301122Y0369200D01*
X0306122Y0369200D02*
X0306122Y0373556D01*
X0311122Y0373556D02*
X0311122Y0369200D01*
X0316122Y0369200D02*
X0316122Y0373556D01*
X0321122Y0373556D02*
X0321122Y0369200D01*
X0326122Y0369200D02*
X0326122Y0373556D01*
X0326122Y0389200D02*
X0326122Y0393556D01*
X0321122Y0393556D02*
X0321122Y0389200D01*
X0316122Y0389200D02*
X0316122Y0393556D01*
X0311122Y0393556D02*
X0311122Y0389200D01*
X0306122Y0389200D02*
X0306122Y0393556D01*
X0301122Y0393556D02*
X0301122Y0389200D01*
X0296122Y0389200D02*
X0296122Y0393556D01*
X0291122Y0393556D02*
X0291122Y0389200D01*
X0286122Y0389200D02*
X0286122Y0393556D01*
X0281122Y0393556D02*
X0281122Y0389200D01*
X0276122Y0389200D02*
X0276122Y0393556D01*
X0271122Y0393556D02*
X0271122Y0389200D01*
X0266122Y0389200D02*
X0266122Y0393556D01*
X0261122Y0393556D02*
X0261122Y0389200D01*
X0256122Y0389200D02*
X0256122Y0393556D01*
X0251122Y0393556D02*
X0251122Y0389200D01*
X0246122Y0389200D02*
X0246122Y0393556D01*
X0241122Y0393556D02*
X0241122Y0389200D01*
X0236122Y0389200D02*
X0236122Y0393556D01*
X0231122Y0393556D02*
X0231122Y0389200D01*
D17*
X0229409Y0025669D03*
X0229409Y0019764D03*
X0241220Y0019764D03*
X0241220Y0025669D03*
X0253031Y0025669D03*
X0253031Y0019764D03*
X0264843Y0019764D03*
X0264843Y0025669D03*
X0284528Y0025669D03*
X0284528Y0019764D03*
X0296339Y0019764D03*
X0296339Y0025669D03*
X0308150Y0025669D03*
X0308150Y0019764D03*
X0319961Y0019764D03*
X0319961Y0025669D03*
X0209724Y0025669D03*
X0203819Y0025669D03*
X0203819Y0019764D03*
X0209724Y0019764D03*
X0186102Y0019764D03*
X0180197Y0019764D03*
X0180197Y0025669D03*
X0186102Y0025669D03*
X0057756Y0025669D03*
X0057756Y0019764D03*
D18*
X0058374Y0193770D03*
X0058374Y0201270D03*
X0067374Y0197520D03*
X0058374Y0284321D03*
X0058374Y0291821D03*
X0067374Y0288071D03*
D19*
X0100147Y0023248D02*
X0100149Y0023316D01*
X0100155Y0023383D01*
X0100165Y0023450D01*
X0100179Y0023516D01*
X0100196Y0023581D01*
X0100218Y0023646D01*
X0100243Y0023708D01*
X0100272Y0023769D01*
X0100304Y0023829D01*
X0100340Y0023886D01*
X0100379Y0023941D01*
X0100421Y0023994D01*
X0100467Y0024044D01*
X0100515Y0024092D01*
X0100566Y0024136D01*
X0100619Y0024178D01*
X0100675Y0024216D01*
X0100733Y0024251D01*
X0100793Y0024283D01*
X0100854Y0024311D01*
X0100917Y0024335D01*
X0100982Y0024355D01*
X0101047Y0024372D01*
X0101114Y0024385D01*
X0101181Y0024394D01*
X0101248Y0024399D01*
X0101316Y0024400D01*
X0101383Y0024397D01*
X0101451Y0024390D01*
X0101518Y0024379D01*
X0101584Y0024364D01*
X0101649Y0024346D01*
X0101712Y0024323D01*
X0101775Y0024297D01*
X0101836Y0024267D01*
X0101894Y0024234D01*
X0101951Y0024198D01*
X0102006Y0024158D01*
X0102058Y0024115D01*
X0102108Y0024069D01*
X0102154Y0024020D01*
X0102198Y0023968D01*
X0102239Y0023914D01*
X0102276Y0023858D01*
X0102310Y0023799D01*
X0102341Y0023739D01*
X0102368Y0023677D01*
X0102391Y0023614D01*
X0102411Y0023549D01*
X0102427Y0023483D01*
X0102439Y0023417D01*
X0102447Y0023349D01*
X0102451Y0023282D01*
X0102451Y0023214D01*
X0102447Y0023147D01*
X0102439Y0023079D01*
X0102427Y0023013D01*
X0102411Y0022947D01*
X0102391Y0022882D01*
X0102368Y0022819D01*
X0102341Y0022757D01*
X0102310Y0022697D01*
X0102276Y0022638D01*
X0102239Y0022582D01*
X0102198Y0022528D01*
X0102154Y0022476D01*
X0102108Y0022427D01*
X0102058Y0022381D01*
X0102006Y0022338D01*
X0101951Y0022298D01*
X0101894Y0022262D01*
X0101836Y0022229D01*
X0101775Y0022199D01*
X0101712Y0022173D01*
X0101649Y0022150D01*
X0101584Y0022132D01*
X0101518Y0022117D01*
X0101451Y0022106D01*
X0101383Y0022099D01*
X0101316Y0022096D01*
X0101248Y0022097D01*
X0101181Y0022102D01*
X0101114Y0022111D01*
X0101047Y0022124D01*
X0100982Y0022141D01*
X0100917Y0022161D01*
X0100854Y0022185D01*
X0100793Y0022213D01*
X0100733Y0022245D01*
X0100675Y0022280D01*
X0100619Y0022318D01*
X0100566Y0022360D01*
X0100515Y0022404D01*
X0100467Y0022452D01*
X0100421Y0022502D01*
X0100379Y0022555D01*
X0100340Y0022610D01*
X0100304Y0022667D01*
X0100272Y0022727D01*
X0100243Y0022788D01*
X0100218Y0022850D01*
X0100196Y0022915D01*
X0100179Y0022980D01*
X0100165Y0023046D01*
X0100155Y0023113D01*
X0100149Y0023180D01*
X0100147Y0023248D01*
X0105147Y0023248D02*
X0105149Y0023316D01*
X0105155Y0023383D01*
X0105165Y0023450D01*
X0105179Y0023516D01*
X0105196Y0023581D01*
X0105218Y0023646D01*
X0105243Y0023708D01*
X0105272Y0023769D01*
X0105304Y0023829D01*
X0105340Y0023886D01*
X0105379Y0023941D01*
X0105421Y0023994D01*
X0105467Y0024044D01*
X0105515Y0024092D01*
X0105566Y0024136D01*
X0105619Y0024178D01*
X0105675Y0024216D01*
X0105733Y0024251D01*
X0105793Y0024283D01*
X0105854Y0024311D01*
X0105917Y0024335D01*
X0105982Y0024355D01*
X0106047Y0024372D01*
X0106114Y0024385D01*
X0106181Y0024394D01*
X0106248Y0024399D01*
X0106316Y0024400D01*
X0106383Y0024397D01*
X0106451Y0024390D01*
X0106518Y0024379D01*
X0106584Y0024364D01*
X0106649Y0024346D01*
X0106712Y0024323D01*
X0106775Y0024297D01*
X0106836Y0024267D01*
X0106894Y0024234D01*
X0106951Y0024198D01*
X0107006Y0024158D01*
X0107058Y0024115D01*
X0107108Y0024069D01*
X0107154Y0024020D01*
X0107198Y0023968D01*
X0107239Y0023914D01*
X0107276Y0023858D01*
X0107310Y0023799D01*
X0107341Y0023739D01*
X0107368Y0023677D01*
X0107391Y0023614D01*
X0107411Y0023549D01*
X0107427Y0023483D01*
X0107439Y0023417D01*
X0107447Y0023349D01*
X0107451Y0023282D01*
X0107451Y0023214D01*
X0107447Y0023147D01*
X0107439Y0023079D01*
X0107427Y0023013D01*
X0107411Y0022947D01*
X0107391Y0022882D01*
X0107368Y0022819D01*
X0107341Y0022757D01*
X0107310Y0022697D01*
X0107276Y0022638D01*
X0107239Y0022582D01*
X0107198Y0022528D01*
X0107154Y0022476D01*
X0107108Y0022427D01*
X0107058Y0022381D01*
X0107006Y0022338D01*
X0106951Y0022298D01*
X0106894Y0022262D01*
X0106836Y0022229D01*
X0106775Y0022199D01*
X0106712Y0022173D01*
X0106649Y0022150D01*
X0106584Y0022132D01*
X0106518Y0022117D01*
X0106451Y0022106D01*
X0106383Y0022099D01*
X0106316Y0022096D01*
X0106248Y0022097D01*
X0106181Y0022102D01*
X0106114Y0022111D01*
X0106047Y0022124D01*
X0105982Y0022141D01*
X0105917Y0022161D01*
X0105854Y0022185D01*
X0105793Y0022213D01*
X0105733Y0022245D01*
X0105675Y0022280D01*
X0105619Y0022318D01*
X0105566Y0022360D01*
X0105515Y0022404D01*
X0105467Y0022452D01*
X0105421Y0022502D01*
X0105379Y0022555D01*
X0105340Y0022610D01*
X0105304Y0022667D01*
X0105272Y0022727D01*
X0105243Y0022788D01*
X0105218Y0022850D01*
X0105196Y0022915D01*
X0105179Y0022980D01*
X0105165Y0023046D01*
X0105155Y0023113D01*
X0105149Y0023180D01*
X0105147Y0023248D01*
X0105147Y0018248D02*
X0105149Y0018316D01*
X0105155Y0018383D01*
X0105165Y0018450D01*
X0105179Y0018516D01*
X0105196Y0018581D01*
X0105218Y0018646D01*
X0105243Y0018708D01*
X0105272Y0018769D01*
X0105304Y0018829D01*
X0105340Y0018886D01*
X0105379Y0018941D01*
X0105421Y0018994D01*
X0105467Y0019044D01*
X0105515Y0019092D01*
X0105566Y0019136D01*
X0105619Y0019178D01*
X0105675Y0019216D01*
X0105733Y0019251D01*
X0105793Y0019283D01*
X0105854Y0019311D01*
X0105917Y0019335D01*
X0105982Y0019355D01*
X0106047Y0019372D01*
X0106114Y0019385D01*
X0106181Y0019394D01*
X0106248Y0019399D01*
X0106316Y0019400D01*
X0106383Y0019397D01*
X0106451Y0019390D01*
X0106518Y0019379D01*
X0106584Y0019364D01*
X0106649Y0019346D01*
X0106712Y0019323D01*
X0106775Y0019297D01*
X0106836Y0019267D01*
X0106894Y0019234D01*
X0106951Y0019198D01*
X0107006Y0019158D01*
X0107058Y0019115D01*
X0107108Y0019069D01*
X0107154Y0019020D01*
X0107198Y0018968D01*
X0107239Y0018914D01*
X0107276Y0018858D01*
X0107310Y0018799D01*
X0107341Y0018739D01*
X0107368Y0018677D01*
X0107391Y0018614D01*
X0107411Y0018549D01*
X0107427Y0018483D01*
X0107439Y0018417D01*
X0107447Y0018349D01*
X0107451Y0018282D01*
X0107451Y0018214D01*
X0107447Y0018147D01*
X0107439Y0018079D01*
X0107427Y0018013D01*
X0107411Y0017947D01*
X0107391Y0017882D01*
X0107368Y0017819D01*
X0107341Y0017757D01*
X0107310Y0017697D01*
X0107276Y0017638D01*
X0107239Y0017582D01*
X0107198Y0017528D01*
X0107154Y0017476D01*
X0107108Y0017427D01*
X0107058Y0017381D01*
X0107006Y0017338D01*
X0106951Y0017298D01*
X0106894Y0017262D01*
X0106836Y0017229D01*
X0106775Y0017199D01*
X0106712Y0017173D01*
X0106649Y0017150D01*
X0106584Y0017132D01*
X0106518Y0017117D01*
X0106451Y0017106D01*
X0106383Y0017099D01*
X0106316Y0017096D01*
X0106248Y0017097D01*
X0106181Y0017102D01*
X0106114Y0017111D01*
X0106047Y0017124D01*
X0105982Y0017141D01*
X0105917Y0017161D01*
X0105854Y0017185D01*
X0105793Y0017213D01*
X0105733Y0017245D01*
X0105675Y0017280D01*
X0105619Y0017318D01*
X0105566Y0017360D01*
X0105515Y0017404D01*
X0105467Y0017452D01*
X0105421Y0017502D01*
X0105379Y0017555D01*
X0105340Y0017610D01*
X0105304Y0017667D01*
X0105272Y0017727D01*
X0105243Y0017788D01*
X0105218Y0017850D01*
X0105196Y0017915D01*
X0105179Y0017980D01*
X0105165Y0018046D01*
X0105155Y0018113D01*
X0105149Y0018180D01*
X0105147Y0018248D01*
X0110147Y0018248D02*
X0110149Y0018316D01*
X0110155Y0018383D01*
X0110165Y0018450D01*
X0110179Y0018516D01*
X0110196Y0018581D01*
X0110218Y0018646D01*
X0110243Y0018708D01*
X0110272Y0018769D01*
X0110304Y0018829D01*
X0110340Y0018886D01*
X0110379Y0018941D01*
X0110421Y0018994D01*
X0110467Y0019044D01*
X0110515Y0019092D01*
X0110566Y0019136D01*
X0110619Y0019178D01*
X0110675Y0019216D01*
X0110733Y0019251D01*
X0110793Y0019283D01*
X0110854Y0019311D01*
X0110917Y0019335D01*
X0110982Y0019355D01*
X0111047Y0019372D01*
X0111114Y0019385D01*
X0111181Y0019394D01*
X0111248Y0019399D01*
X0111316Y0019400D01*
X0111383Y0019397D01*
X0111451Y0019390D01*
X0111518Y0019379D01*
X0111584Y0019364D01*
X0111649Y0019346D01*
X0111712Y0019323D01*
X0111775Y0019297D01*
X0111836Y0019267D01*
X0111894Y0019234D01*
X0111951Y0019198D01*
X0112006Y0019158D01*
X0112058Y0019115D01*
X0112108Y0019069D01*
X0112154Y0019020D01*
X0112198Y0018968D01*
X0112239Y0018914D01*
X0112276Y0018858D01*
X0112310Y0018799D01*
X0112341Y0018739D01*
X0112368Y0018677D01*
X0112391Y0018614D01*
X0112411Y0018549D01*
X0112427Y0018483D01*
X0112439Y0018417D01*
X0112447Y0018349D01*
X0112451Y0018282D01*
X0112451Y0018214D01*
X0112447Y0018147D01*
X0112439Y0018079D01*
X0112427Y0018013D01*
X0112411Y0017947D01*
X0112391Y0017882D01*
X0112368Y0017819D01*
X0112341Y0017757D01*
X0112310Y0017697D01*
X0112276Y0017638D01*
X0112239Y0017582D01*
X0112198Y0017528D01*
X0112154Y0017476D01*
X0112108Y0017427D01*
X0112058Y0017381D01*
X0112006Y0017338D01*
X0111951Y0017298D01*
X0111894Y0017262D01*
X0111836Y0017229D01*
X0111775Y0017199D01*
X0111712Y0017173D01*
X0111649Y0017150D01*
X0111584Y0017132D01*
X0111518Y0017117D01*
X0111451Y0017106D01*
X0111383Y0017099D01*
X0111316Y0017096D01*
X0111248Y0017097D01*
X0111181Y0017102D01*
X0111114Y0017111D01*
X0111047Y0017124D01*
X0110982Y0017141D01*
X0110917Y0017161D01*
X0110854Y0017185D01*
X0110793Y0017213D01*
X0110733Y0017245D01*
X0110675Y0017280D01*
X0110619Y0017318D01*
X0110566Y0017360D01*
X0110515Y0017404D01*
X0110467Y0017452D01*
X0110421Y0017502D01*
X0110379Y0017555D01*
X0110340Y0017610D01*
X0110304Y0017667D01*
X0110272Y0017727D01*
X0110243Y0017788D01*
X0110218Y0017850D01*
X0110196Y0017915D01*
X0110179Y0017980D01*
X0110165Y0018046D01*
X0110155Y0018113D01*
X0110149Y0018180D01*
X0110147Y0018248D01*
X0110147Y0023248D02*
X0110149Y0023316D01*
X0110155Y0023383D01*
X0110165Y0023450D01*
X0110179Y0023516D01*
X0110196Y0023581D01*
X0110218Y0023646D01*
X0110243Y0023708D01*
X0110272Y0023769D01*
X0110304Y0023829D01*
X0110340Y0023886D01*
X0110379Y0023941D01*
X0110421Y0023994D01*
X0110467Y0024044D01*
X0110515Y0024092D01*
X0110566Y0024136D01*
X0110619Y0024178D01*
X0110675Y0024216D01*
X0110733Y0024251D01*
X0110793Y0024283D01*
X0110854Y0024311D01*
X0110917Y0024335D01*
X0110982Y0024355D01*
X0111047Y0024372D01*
X0111114Y0024385D01*
X0111181Y0024394D01*
X0111248Y0024399D01*
X0111316Y0024400D01*
X0111383Y0024397D01*
X0111451Y0024390D01*
X0111518Y0024379D01*
X0111584Y0024364D01*
X0111649Y0024346D01*
X0111712Y0024323D01*
X0111775Y0024297D01*
X0111836Y0024267D01*
X0111894Y0024234D01*
X0111951Y0024198D01*
X0112006Y0024158D01*
X0112058Y0024115D01*
X0112108Y0024069D01*
X0112154Y0024020D01*
X0112198Y0023968D01*
X0112239Y0023914D01*
X0112276Y0023858D01*
X0112310Y0023799D01*
X0112341Y0023739D01*
X0112368Y0023677D01*
X0112391Y0023614D01*
X0112411Y0023549D01*
X0112427Y0023483D01*
X0112439Y0023417D01*
X0112447Y0023349D01*
X0112451Y0023282D01*
X0112451Y0023214D01*
X0112447Y0023147D01*
X0112439Y0023079D01*
X0112427Y0023013D01*
X0112411Y0022947D01*
X0112391Y0022882D01*
X0112368Y0022819D01*
X0112341Y0022757D01*
X0112310Y0022697D01*
X0112276Y0022638D01*
X0112239Y0022582D01*
X0112198Y0022528D01*
X0112154Y0022476D01*
X0112108Y0022427D01*
X0112058Y0022381D01*
X0112006Y0022338D01*
X0111951Y0022298D01*
X0111894Y0022262D01*
X0111836Y0022229D01*
X0111775Y0022199D01*
X0111712Y0022173D01*
X0111649Y0022150D01*
X0111584Y0022132D01*
X0111518Y0022117D01*
X0111451Y0022106D01*
X0111383Y0022099D01*
X0111316Y0022096D01*
X0111248Y0022097D01*
X0111181Y0022102D01*
X0111114Y0022111D01*
X0111047Y0022124D01*
X0110982Y0022141D01*
X0110917Y0022161D01*
X0110854Y0022185D01*
X0110793Y0022213D01*
X0110733Y0022245D01*
X0110675Y0022280D01*
X0110619Y0022318D01*
X0110566Y0022360D01*
X0110515Y0022404D01*
X0110467Y0022452D01*
X0110421Y0022502D01*
X0110379Y0022555D01*
X0110340Y0022610D01*
X0110304Y0022667D01*
X0110272Y0022727D01*
X0110243Y0022788D01*
X0110218Y0022850D01*
X0110196Y0022915D01*
X0110179Y0022980D01*
X0110165Y0023046D01*
X0110155Y0023113D01*
X0110149Y0023180D01*
X0110147Y0023248D01*
X0115147Y0023248D02*
X0115149Y0023316D01*
X0115155Y0023383D01*
X0115165Y0023450D01*
X0115179Y0023516D01*
X0115196Y0023581D01*
X0115218Y0023646D01*
X0115243Y0023708D01*
X0115272Y0023769D01*
X0115304Y0023829D01*
X0115340Y0023886D01*
X0115379Y0023941D01*
X0115421Y0023994D01*
X0115467Y0024044D01*
X0115515Y0024092D01*
X0115566Y0024136D01*
X0115619Y0024178D01*
X0115675Y0024216D01*
X0115733Y0024251D01*
X0115793Y0024283D01*
X0115854Y0024311D01*
X0115917Y0024335D01*
X0115982Y0024355D01*
X0116047Y0024372D01*
X0116114Y0024385D01*
X0116181Y0024394D01*
X0116248Y0024399D01*
X0116316Y0024400D01*
X0116383Y0024397D01*
X0116451Y0024390D01*
X0116518Y0024379D01*
X0116584Y0024364D01*
X0116649Y0024346D01*
X0116712Y0024323D01*
X0116775Y0024297D01*
X0116836Y0024267D01*
X0116894Y0024234D01*
X0116951Y0024198D01*
X0117006Y0024158D01*
X0117058Y0024115D01*
X0117108Y0024069D01*
X0117154Y0024020D01*
X0117198Y0023968D01*
X0117239Y0023914D01*
X0117276Y0023858D01*
X0117310Y0023799D01*
X0117341Y0023739D01*
X0117368Y0023677D01*
X0117391Y0023614D01*
X0117411Y0023549D01*
X0117427Y0023483D01*
X0117439Y0023417D01*
X0117447Y0023349D01*
X0117451Y0023282D01*
X0117451Y0023214D01*
X0117447Y0023147D01*
X0117439Y0023079D01*
X0117427Y0023013D01*
X0117411Y0022947D01*
X0117391Y0022882D01*
X0117368Y0022819D01*
X0117341Y0022757D01*
X0117310Y0022697D01*
X0117276Y0022638D01*
X0117239Y0022582D01*
X0117198Y0022528D01*
X0117154Y0022476D01*
X0117108Y0022427D01*
X0117058Y0022381D01*
X0117006Y0022338D01*
X0116951Y0022298D01*
X0116894Y0022262D01*
X0116836Y0022229D01*
X0116775Y0022199D01*
X0116712Y0022173D01*
X0116649Y0022150D01*
X0116584Y0022132D01*
X0116518Y0022117D01*
X0116451Y0022106D01*
X0116383Y0022099D01*
X0116316Y0022096D01*
X0116248Y0022097D01*
X0116181Y0022102D01*
X0116114Y0022111D01*
X0116047Y0022124D01*
X0115982Y0022141D01*
X0115917Y0022161D01*
X0115854Y0022185D01*
X0115793Y0022213D01*
X0115733Y0022245D01*
X0115675Y0022280D01*
X0115619Y0022318D01*
X0115566Y0022360D01*
X0115515Y0022404D01*
X0115467Y0022452D01*
X0115421Y0022502D01*
X0115379Y0022555D01*
X0115340Y0022610D01*
X0115304Y0022667D01*
X0115272Y0022727D01*
X0115243Y0022788D01*
X0115218Y0022850D01*
X0115196Y0022915D01*
X0115179Y0022980D01*
X0115165Y0023046D01*
X0115155Y0023113D01*
X0115149Y0023180D01*
X0115147Y0023248D01*
X0115147Y0018248D02*
X0115149Y0018316D01*
X0115155Y0018383D01*
X0115165Y0018450D01*
X0115179Y0018516D01*
X0115196Y0018581D01*
X0115218Y0018646D01*
X0115243Y0018708D01*
X0115272Y0018769D01*
X0115304Y0018829D01*
X0115340Y0018886D01*
X0115379Y0018941D01*
X0115421Y0018994D01*
X0115467Y0019044D01*
X0115515Y0019092D01*
X0115566Y0019136D01*
X0115619Y0019178D01*
X0115675Y0019216D01*
X0115733Y0019251D01*
X0115793Y0019283D01*
X0115854Y0019311D01*
X0115917Y0019335D01*
X0115982Y0019355D01*
X0116047Y0019372D01*
X0116114Y0019385D01*
X0116181Y0019394D01*
X0116248Y0019399D01*
X0116316Y0019400D01*
X0116383Y0019397D01*
X0116451Y0019390D01*
X0116518Y0019379D01*
X0116584Y0019364D01*
X0116649Y0019346D01*
X0116712Y0019323D01*
X0116775Y0019297D01*
X0116836Y0019267D01*
X0116894Y0019234D01*
X0116951Y0019198D01*
X0117006Y0019158D01*
X0117058Y0019115D01*
X0117108Y0019069D01*
X0117154Y0019020D01*
X0117198Y0018968D01*
X0117239Y0018914D01*
X0117276Y0018858D01*
X0117310Y0018799D01*
X0117341Y0018739D01*
X0117368Y0018677D01*
X0117391Y0018614D01*
X0117411Y0018549D01*
X0117427Y0018483D01*
X0117439Y0018417D01*
X0117447Y0018349D01*
X0117451Y0018282D01*
X0117451Y0018214D01*
X0117447Y0018147D01*
X0117439Y0018079D01*
X0117427Y0018013D01*
X0117411Y0017947D01*
X0117391Y0017882D01*
X0117368Y0017819D01*
X0117341Y0017757D01*
X0117310Y0017697D01*
X0117276Y0017638D01*
X0117239Y0017582D01*
X0117198Y0017528D01*
X0117154Y0017476D01*
X0117108Y0017427D01*
X0117058Y0017381D01*
X0117006Y0017338D01*
X0116951Y0017298D01*
X0116894Y0017262D01*
X0116836Y0017229D01*
X0116775Y0017199D01*
X0116712Y0017173D01*
X0116649Y0017150D01*
X0116584Y0017132D01*
X0116518Y0017117D01*
X0116451Y0017106D01*
X0116383Y0017099D01*
X0116316Y0017096D01*
X0116248Y0017097D01*
X0116181Y0017102D01*
X0116114Y0017111D01*
X0116047Y0017124D01*
X0115982Y0017141D01*
X0115917Y0017161D01*
X0115854Y0017185D01*
X0115793Y0017213D01*
X0115733Y0017245D01*
X0115675Y0017280D01*
X0115619Y0017318D01*
X0115566Y0017360D01*
X0115515Y0017404D01*
X0115467Y0017452D01*
X0115421Y0017502D01*
X0115379Y0017555D01*
X0115340Y0017610D01*
X0115304Y0017667D01*
X0115272Y0017727D01*
X0115243Y0017788D01*
X0115218Y0017850D01*
X0115196Y0017915D01*
X0115179Y0017980D01*
X0115165Y0018046D01*
X0115155Y0018113D01*
X0115149Y0018180D01*
X0115147Y0018248D01*
X0120147Y0018248D02*
X0120149Y0018316D01*
X0120155Y0018383D01*
X0120165Y0018450D01*
X0120179Y0018516D01*
X0120196Y0018581D01*
X0120218Y0018646D01*
X0120243Y0018708D01*
X0120272Y0018769D01*
X0120304Y0018829D01*
X0120340Y0018886D01*
X0120379Y0018941D01*
X0120421Y0018994D01*
X0120467Y0019044D01*
X0120515Y0019092D01*
X0120566Y0019136D01*
X0120619Y0019178D01*
X0120675Y0019216D01*
X0120733Y0019251D01*
X0120793Y0019283D01*
X0120854Y0019311D01*
X0120917Y0019335D01*
X0120982Y0019355D01*
X0121047Y0019372D01*
X0121114Y0019385D01*
X0121181Y0019394D01*
X0121248Y0019399D01*
X0121316Y0019400D01*
X0121383Y0019397D01*
X0121451Y0019390D01*
X0121518Y0019379D01*
X0121584Y0019364D01*
X0121649Y0019346D01*
X0121712Y0019323D01*
X0121775Y0019297D01*
X0121836Y0019267D01*
X0121894Y0019234D01*
X0121951Y0019198D01*
X0122006Y0019158D01*
X0122058Y0019115D01*
X0122108Y0019069D01*
X0122154Y0019020D01*
X0122198Y0018968D01*
X0122239Y0018914D01*
X0122276Y0018858D01*
X0122310Y0018799D01*
X0122341Y0018739D01*
X0122368Y0018677D01*
X0122391Y0018614D01*
X0122411Y0018549D01*
X0122427Y0018483D01*
X0122439Y0018417D01*
X0122447Y0018349D01*
X0122451Y0018282D01*
X0122451Y0018214D01*
X0122447Y0018147D01*
X0122439Y0018079D01*
X0122427Y0018013D01*
X0122411Y0017947D01*
X0122391Y0017882D01*
X0122368Y0017819D01*
X0122341Y0017757D01*
X0122310Y0017697D01*
X0122276Y0017638D01*
X0122239Y0017582D01*
X0122198Y0017528D01*
X0122154Y0017476D01*
X0122108Y0017427D01*
X0122058Y0017381D01*
X0122006Y0017338D01*
X0121951Y0017298D01*
X0121894Y0017262D01*
X0121836Y0017229D01*
X0121775Y0017199D01*
X0121712Y0017173D01*
X0121649Y0017150D01*
X0121584Y0017132D01*
X0121518Y0017117D01*
X0121451Y0017106D01*
X0121383Y0017099D01*
X0121316Y0017096D01*
X0121248Y0017097D01*
X0121181Y0017102D01*
X0121114Y0017111D01*
X0121047Y0017124D01*
X0120982Y0017141D01*
X0120917Y0017161D01*
X0120854Y0017185D01*
X0120793Y0017213D01*
X0120733Y0017245D01*
X0120675Y0017280D01*
X0120619Y0017318D01*
X0120566Y0017360D01*
X0120515Y0017404D01*
X0120467Y0017452D01*
X0120421Y0017502D01*
X0120379Y0017555D01*
X0120340Y0017610D01*
X0120304Y0017667D01*
X0120272Y0017727D01*
X0120243Y0017788D01*
X0120218Y0017850D01*
X0120196Y0017915D01*
X0120179Y0017980D01*
X0120165Y0018046D01*
X0120155Y0018113D01*
X0120149Y0018180D01*
X0120147Y0018248D01*
X0120147Y0023248D02*
X0120149Y0023316D01*
X0120155Y0023383D01*
X0120165Y0023450D01*
X0120179Y0023516D01*
X0120196Y0023581D01*
X0120218Y0023646D01*
X0120243Y0023708D01*
X0120272Y0023769D01*
X0120304Y0023829D01*
X0120340Y0023886D01*
X0120379Y0023941D01*
X0120421Y0023994D01*
X0120467Y0024044D01*
X0120515Y0024092D01*
X0120566Y0024136D01*
X0120619Y0024178D01*
X0120675Y0024216D01*
X0120733Y0024251D01*
X0120793Y0024283D01*
X0120854Y0024311D01*
X0120917Y0024335D01*
X0120982Y0024355D01*
X0121047Y0024372D01*
X0121114Y0024385D01*
X0121181Y0024394D01*
X0121248Y0024399D01*
X0121316Y0024400D01*
X0121383Y0024397D01*
X0121451Y0024390D01*
X0121518Y0024379D01*
X0121584Y0024364D01*
X0121649Y0024346D01*
X0121712Y0024323D01*
X0121775Y0024297D01*
X0121836Y0024267D01*
X0121894Y0024234D01*
X0121951Y0024198D01*
X0122006Y0024158D01*
X0122058Y0024115D01*
X0122108Y0024069D01*
X0122154Y0024020D01*
X0122198Y0023968D01*
X0122239Y0023914D01*
X0122276Y0023858D01*
X0122310Y0023799D01*
X0122341Y0023739D01*
X0122368Y0023677D01*
X0122391Y0023614D01*
X0122411Y0023549D01*
X0122427Y0023483D01*
X0122439Y0023417D01*
X0122447Y0023349D01*
X0122451Y0023282D01*
X0122451Y0023214D01*
X0122447Y0023147D01*
X0122439Y0023079D01*
X0122427Y0023013D01*
X0122411Y0022947D01*
X0122391Y0022882D01*
X0122368Y0022819D01*
X0122341Y0022757D01*
X0122310Y0022697D01*
X0122276Y0022638D01*
X0122239Y0022582D01*
X0122198Y0022528D01*
X0122154Y0022476D01*
X0122108Y0022427D01*
X0122058Y0022381D01*
X0122006Y0022338D01*
X0121951Y0022298D01*
X0121894Y0022262D01*
X0121836Y0022229D01*
X0121775Y0022199D01*
X0121712Y0022173D01*
X0121649Y0022150D01*
X0121584Y0022132D01*
X0121518Y0022117D01*
X0121451Y0022106D01*
X0121383Y0022099D01*
X0121316Y0022096D01*
X0121248Y0022097D01*
X0121181Y0022102D01*
X0121114Y0022111D01*
X0121047Y0022124D01*
X0120982Y0022141D01*
X0120917Y0022161D01*
X0120854Y0022185D01*
X0120793Y0022213D01*
X0120733Y0022245D01*
X0120675Y0022280D01*
X0120619Y0022318D01*
X0120566Y0022360D01*
X0120515Y0022404D01*
X0120467Y0022452D01*
X0120421Y0022502D01*
X0120379Y0022555D01*
X0120340Y0022610D01*
X0120304Y0022667D01*
X0120272Y0022727D01*
X0120243Y0022788D01*
X0120218Y0022850D01*
X0120196Y0022915D01*
X0120179Y0022980D01*
X0120165Y0023046D01*
X0120155Y0023113D01*
X0120149Y0023180D01*
X0120147Y0023248D01*
D20*
X0101299Y0018248D03*
D21*
X0109528Y0317598D03*
X0117008Y0317598D03*
X0113268Y0326260D03*
D22*
X0048307Y0038465D03*
X0048307Y0050276D03*
X0048307Y0062087D03*
X0048307Y0073858D03*
X0048307Y0085709D03*
X0048307Y0097520D03*
X0048307Y0109331D03*
X0048307Y0121142D03*
X0048307Y0132953D03*
X0048307Y0144764D03*
X0048346Y0156575D03*
X0048386Y0164685D03*
X0078228Y0164449D03*
X0048307Y0214843D03*
X0040039Y0229409D03*
X0057756Y0238071D03*
X0118307Y0242480D03*
X0158150Y0304213D03*
X0135709Y0346732D03*
X0123504Y0346732D03*
X0135709Y0359331D03*
X0054606Y0335709D03*
X0040827Y0323504D03*
X0047520Y0299488D03*
X0143189Y0164449D03*
X0151850Y0164449D03*
X0160512Y0164449D03*
X0170354Y0164449D03*
X0170354Y0156575D03*
X0170354Y0145157D03*
X0170354Y0133346D03*
X0170354Y0121024D03*
X0170354Y0109724D03*
X0170354Y0097913D03*
X0170354Y0086102D03*
X0170354Y0074291D03*
X0170354Y0062480D03*
X0170354Y0050669D03*
X0170354Y0038465D03*
X0159331Y0038465D03*
X0148307Y0038465D03*
X0137677Y0038465D03*
X0127047Y0038465D03*
X0116142Y0038465D03*
X0095551Y0038465D03*
X0083740Y0038465D03*
X0071929Y0038465D03*
X0060118Y0038465D03*
X0332165Y0086102D03*
X0332165Y0123504D03*
X0332559Y0160906D03*
X0332559Y0198307D03*
X0332165Y0235709D03*
X0332953Y0272717D03*
X0331772Y0310118D03*
X0335709Y0349094D03*
D23*
X0361102Y0345157D03*
X0364843Y0345157D03*
X0368583Y0345157D03*
X0368583Y0334921D03*
X0364843Y0334921D03*
X0361102Y0334921D03*
X0361102Y0308150D03*
X0364843Y0308150D03*
X0368583Y0308150D03*
X0368583Y0297913D03*
X0364843Y0297913D03*
X0361102Y0297913D03*
X0361102Y0270354D03*
X0364843Y0270354D03*
X0368583Y0270354D03*
X0368583Y0260118D03*
X0364843Y0260118D03*
X0361102Y0260118D03*
X0361102Y0232953D03*
X0364843Y0232953D03*
X0368583Y0232953D03*
X0368583Y0222717D03*
X0364843Y0222717D03*
X0361102Y0222717D03*
X0361102Y0195551D03*
X0364843Y0195551D03*
X0368583Y0195551D03*
X0368583Y0185315D03*
X0364843Y0185315D03*
X0361102Y0185315D03*
X0361102Y0158150D03*
X0364843Y0158150D03*
X0368583Y0158150D03*
X0368583Y0147913D03*
X0364843Y0147913D03*
X0361102Y0147913D03*
X0361102Y0120748D03*
X0364843Y0120748D03*
X0368583Y0120748D03*
X0368583Y0110512D03*
X0364843Y0110512D03*
X0361102Y0110512D03*
X0361102Y0083740D03*
X0364843Y0083740D03*
X0368583Y0083740D03*
X0368583Y0073504D03*
X0364843Y0073504D03*
X0361102Y0073504D03*
D24*
X0109331Y0266484D03*
X0109331Y0295484D03*
X0189646Y0360579D03*
X0189646Y0389579D03*
D25*
X0175406Y0351457D03*
X0146406Y0351457D03*
D26*
X0164362Y0300047D03*
X0168102Y0300047D03*
X0171843Y0300047D03*
X0171843Y0290874D03*
X0164362Y0290874D03*
D27*
X0033563Y0303248D03*
X0023563Y0303248D03*
X0023563Y0323209D03*
X0028563Y0323209D03*
X0033563Y0323209D03*
X0033563Y0349705D03*
X0023563Y0349705D03*
X0023563Y0276752D03*
X0028563Y0276752D03*
X0033563Y0276752D03*
X0033445Y0255374D03*
X0023445Y0255374D03*
X0023445Y0228878D03*
X0028445Y0228878D03*
X0033445Y0228878D03*
X0033760Y0210217D03*
X0023760Y0210217D03*
X0023760Y0183720D03*
X0028760Y0183720D03*
X0033760Y0183720D03*
D28*
X0323315Y0180963D03*
X0325283Y0180963D03*
X0327252Y0180963D03*
X0329220Y0180963D03*
X0331189Y0180963D03*
X0333157Y0180963D03*
X0333157Y0191986D03*
X0331189Y0191986D03*
X0329220Y0191986D03*
X0327252Y0191986D03*
X0325283Y0191986D03*
X0323315Y0191986D03*
X0323315Y0218364D03*
X0325283Y0218364D03*
X0327252Y0218364D03*
X0329220Y0218364D03*
X0331189Y0218364D03*
X0333157Y0218364D03*
X0333157Y0229388D03*
X0331189Y0229388D03*
X0329220Y0229388D03*
X0327252Y0229388D03*
X0325283Y0229388D03*
X0323315Y0229388D03*
X0323315Y0255766D03*
X0325283Y0255766D03*
X0327252Y0255766D03*
X0329220Y0255766D03*
X0331189Y0255766D03*
X0333157Y0255766D03*
X0333157Y0266789D03*
X0331189Y0266789D03*
X0329220Y0266789D03*
X0327252Y0266789D03*
X0325283Y0266789D03*
X0323315Y0266789D03*
X0323315Y0293167D03*
X0325283Y0293167D03*
X0327252Y0293167D03*
X0329220Y0293167D03*
X0331189Y0293167D03*
X0333157Y0293167D03*
X0333157Y0304191D03*
X0331189Y0304191D03*
X0329220Y0304191D03*
X0327252Y0304191D03*
X0325283Y0304191D03*
X0323315Y0304191D03*
X0323315Y0330569D03*
X0325283Y0330569D03*
X0327252Y0330569D03*
X0329220Y0330569D03*
X0331189Y0330569D03*
X0333157Y0330569D03*
X0333157Y0341593D03*
X0331189Y0341593D03*
X0329220Y0341593D03*
X0327252Y0341593D03*
X0325283Y0341593D03*
X0323315Y0341593D03*
X0323315Y0154585D03*
X0325283Y0154585D03*
X0327252Y0154585D03*
X0329220Y0154585D03*
X0331189Y0154585D03*
X0333157Y0154585D03*
X0333157Y0143561D03*
X0331189Y0143561D03*
X0329220Y0143561D03*
X0327252Y0143561D03*
X0325283Y0143561D03*
X0323315Y0143561D03*
X0323315Y0117183D03*
X0325283Y0117183D03*
X0327252Y0117183D03*
X0329220Y0117183D03*
X0331189Y0117183D03*
X0333157Y0117183D03*
X0333157Y0106159D03*
X0331189Y0106159D03*
X0329220Y0106159D03*
X0327252Y0106159D03*
X0325283Y0106159D03*
X0323315Y0106159D03*
X0323315Y0079781D03*
X0325283Y0079781D03*
X0327252Y0079781D03*
X0329220Y0079781D03*
X0331189Y0079781D03*
X0333157Y0079781D03*
X0333157Y0068758D03*
X0331189Y0068758D03*
X0329220Y0068758D03*
X0327252Y0068758D03*
X0325283Y0068758D03*
X0323315Y0068758D03*
D29*
X0320726Y0071331D03*
X0320726Y0073299D03*
X0320726Y0075268D03*
X0320726Y0077236D03*
X0335726Y0077236D03*
X0335726Y0075268D03*
X0335748Y0073307D03*
X0335740Y0071317D03*
X0335740Y0108719D03*
X0335748Y0110709D03*
X0335726Y0112669D03*
X0335726Y0114638D03*
X0320726Y0114638D03*
X0320726Y0112669D03*
X0320726Y0110701D03*
X0320726Y0108732D03*
X0320726Y0146134D03*
X0320726Y0148102D03*
X0320726Y0150071D03*
X0320726Y0152039D03*
X0335726Y0152039D03*
X0335726Y0150071D03*
X0335748Y0148110D03*
X0335740Y0146120D03*
X0335740Y0183522D03*
X0335748Y0185512D03*
X0335726Y0187472D03*
X0335726Y0189441D03*
X0320726Y0189441D03*
X0320726Y0187472D03*
X0320726Y0185504D03*
X0320726Y0183535D03*
X0320726Y0220937D03*
X0320726Y0222906D03*
X0320726Y0224874D03*
X0320726Y0226843D03*
X0335726Y0226843D03*
X0335726Y0224874D03*
X0335748Y0222913D03*
X0335740Y0220923D03*
X0335740Y0258325D03*
X0335748Y0260315D03*
X0335726Y0262276D03*
X0335726Y0264244D03*
X0320726Y0264244D03*
X0320726Y0262276D03*
X0320726Y0260307D03*
X0320726Y0258339D03*
X0320726Y0295740D03*
X0320726Y0297709D03*
X0320726Y0299677D03*
X0320726Y0301646D03*
X0335726Y0301646D03*
X0335726Y0299677D03*
X0335748Y0297717D03*
X0335740Y0295726D03*
X0335740Y0333128D03*
X0335748Y0335118D03*
X0335726Y0337079D03*
X0335726Y0339047D03*
X0320726Y0339047D03*
X0320726Y0337079D03*
X0320726Y0335110D03*
X0320726Y0333142D03*
D30*
X0328228Y0336102D03*
X0328228Y0298701D03*
X0328228Y0261299D03*
X0328228Y0223898D03*
X0328228Y0186496D03*
X0328228Y0149094D03*
X0328228Y0111693D03*
X0328228Y0074291D03*
D31*
X0172921Y0216991D03*
X0170961Y0216991D03*
X0168961Y0216991D03*
X0167000Y0216991D03*
X0167000Y0228363D03*
X0168961Y0228363D03*
X0170961Y0228363D03*
X0172921Y0228363D03*
D32*
X0175646Y0225638D03*
X0175646Y0223677D03*
X0175646Y0221677D03*
X0175646Y0219717D03*
X0164275Y0219717D03*
X0164275Y0221677D03*
X0164275Y0223677D03*
X0164275Y0225638D03*
D33*
X0169961Y0222677D03*
M02*
