G75*
%MOIN*%
%OFA0B0*%
%FSLAX25Y25*%
%IPPOS*%
%LPD*%
%AMOC8*
5,1,8,0,0,1.08239X$1,22.5*
%
%ADD10C,0.00600*%
D10*
X0074234Y0376009D02*
X0075347Y0376009D01*
X0075904Y0376565D01*
X0073677Y0378792D01*
X0073677Y0376565D01*
X0074234Y0376009D01*
X0075904Y0376565D02*
X0075904Y0378792D01*
X0075347Y0379349D01*
X0074234Y0379349D01*
X0073677Y0378792D01*
X0074234Y0382308D02*
X0073677Y0382865D01*
X0073677Y0385091D01*
X0074234Y0385648D01*
X0075347Y0385648D01*
X0075904Y0385091D01*
X0075904Y0384534D01*
X0075347Y0383978D01*
X0073677Y0383978D01*
X0074234Y0382308D02*
X0075347Y0382308D01*
X0075904Y0382865D01*
X0077302Y0382865D02*
X0077859Y0382308D01*
X0078972Y0382308D01*
X0079529Y0382865D01*
X0078416Y0383978D02*
X0077859Y0383978D01*
X0077302Y0383421D01*
X0077302Y0382865D01*
X0077859Y0383978D02*
X0077302Y0384534D01*
X0077302Y0385091D01*
X0077859Y0385648D01*
X0078972Y0385648D01*
X0079529Y0385091D01*
X0077859Y0379349D02*
X0079529Y0377679D01*
X0077302Y0377679D01*
X0077859Y0376009D02*
X0077859Y0379349D01*
X0170528Y0379186D02*
X0171084Y0379742D01*
X0172198Y0379742D01*
X0172754Y0379186D01*
X0170528Y0379186D02*
X0170528Y0378629D01*
X0172754Y0376402D01*
X0170528Y0376402D01*
X0170528Y0381914D02*
X0172754Y0381914D01*
X0171641Y0381914D02*
X0171641Y0385254D01*
X0172754Y0384141D01*
X0228933Y0384529D02*
X0230603Y0384529D01*
X0231160Y0385086D01*
X0231160Y0385642D01*
X0230603Y0386199D01*
X0229490Y0386199D01*
X0228933Y0385642D01*
X0228933Y0383416D01*
X0229490Y0382859D01*
X0230603Y0382859D01*
X0231160Y0383416D01*
X0232558Y0383416D02*
X0233115Y0382859D01*
X0234228Y0382859D01*
X0234785Y0383416D01*
X0233672Y0384529D02*
X0233115Y0384529D01*
X0232558Y0383972D01*
X0232558Y0383416D01*
X0233115Y0384529D02*
X0232558Y0385086D01*
X0232558Y0385642D01*
X0233115Y0386199D01*
X0234228Y0386199D01*
X0234785Y0385642D01*
X0233115Y0379900D02*
X0234785Y0378230D01*
X0232558Y0378230D01*
X0233115Y0376560D02*
X0233115Y0379900D01*
X0231160Y0379343D02*
X0230603Y0379900D01*
X0229490Y0379900D01*
X0228933Y0379343D01*
X0231160Y0377116D01*
X0230603Y0376560D01*
X0229490Y0376560D01*
X0228933Y0377116D01*
X0228933Y0379343D01*
X0231160Y0379343D02*
X0231160Y0377116D01*
X0325784Y0376954D02*
X0328010Y0376954D01*
X0325784Y0379180D01*
X0325784Y0379737D01*
X0326340Y0380293D01*
X0327454Y0380293D01*
X0328010Y0379737D01*
X0328010Y0382465D02*
X0325784Y0382465D01*
X0326897Y0382465D02*
X0326897Y0385805D01*
X0328010Y0384692D01*
M02*
