%
M48
M72
T01C0.0100
T02C0.0250
T03C0.0276
T04C0.0290
%
T01
X1484Y1681
X1484Y2862
X1484Y4437
X894Y5421
X1602Y6799
X894Y7390
X2429Y7783
X3453Y8138
X4083Y7783
X3689Y7272
X3689Y6287
X2980Y5815
X3650Y5343
X4043Y4358
X3256Y3689
X3020Y1681
X4437Y1169
X6169Y1957
X6406Y894
X7705Y2350
X8217Y2980
X9594Y1917
X10343Y894
X8374Y894
X10028Y4555
X8728Y4870
X8374Y5736
X9004Y6130
X8492Y6799
X7744Y7626
X6917Y9043
X6681Y9713
X5736Y10421
X5618Y11406
X5539Y12626
X5500Y13728
X5618Y14594
X5382Y15972
X4083Y15264
X3768Y14949
X3453Y14870
X4161Y13846
X3453Y13689
X3453Y12508
X4122Y12705
X3453Y11327
X4083Y10224
X4437Y9043
X3453Y9083
X2154Y9319
X1878Y10224
X894Y9358
X894Y11327
X894Y13295
X894Y15264
X2705Y16799
X2980Y17035
X2429Y17075
X2350Y17783
X2350Y18965
X894Y19201
X894Y21169
X2350Y22311
X2350Y23492
X894Y23138
X894Y25106
X2744Y25539
X3965Y26563
X3689Y27665
X3689Y28610
X2350Y28413
X2350Y27035
X894Y27075
X894Y29043
X1878Y30539
X894Y31012
X2350Y31760
X2350Y32980
X894Y32980
X894Y34949
X1602Y35303
X2350Y35579
X1484Y36917
X1484Y38689
X3453Y38689
X4594Y39476
X5657Y37705
X4004Y35972
X5185Y35539
X5185Y34476
X6878Y33846
X7941Y33846
X9319Y32744
X9594Y32350
X9319Y31366
X9043Y30815
X9319Y29988
X9870Y29988
X9594Y29161
X9043Y28177
X7941Y28059
X7193Y28807
X7902Y29752
X7941Y31366
X6839Y31366
X5736Y31366
X4752Y30815
X3965Y31327
X5406Y29182
X5461Y28413
X5264Y27350
X5224Y25933
X4673Y24555
X4437Y22311
X4043Y22035
X5028Y20303
X5854Y19752
X4988Y19240
X4909Y18413
X3768Y18374
X3453Y16406
X3453Y16051
X894Y17232
X6563Y17902
X6839Y18217
X7114Y18571
X7390Y18846
X7941Y19791
X7587Y20657
X7823Y21091
X8217Y21484
X8610Y21760
X9043Y22272
X8768Y22941
X7941Y22272
X8335Y20972
X9043Y19791
X9870Y20343
X11327Y18571
X10933Y17902
X10303Y18217
X9870Y17035
X9043Y17579
X8846Y15028
X8335Y14949
X8610Y14264
X9398Y13941
X9594Y12705
X9594Y12075
X8728Y12075
X8650Y11445
X8925Y11130
X8768Y10579
X8768Y10146
X9673Y9594
X10028Y9319
X8768Y9043
X9394Y7941
X9713Y7783
X9713Y6760
X10106Y6760
X11248Y8768
X11248Y10146
X11366Y11130
X10421Y11130
X9673Y10854
X10421Y12429
X11917Y12114
X12224Y12886
X12941Y12114
X12902Y10972
X12902Y9594
X13571Y9319
X13492Y8295
X13138Y7823
X13925Y7626
X14201Y7626
X13571Y6642
X13217Y6760
X13295Y6051
X13965Y6248
X13768Y5067
X14280Y4634
X15264Y5067
X17665Y5106
X18138Y4634
X17587Y3807
X19083Y4831
X18965Y5461
X18413Y5736
X17626Y6760
X17587Y7665
X19240Y8256
X19516Y7508
X21091Y8531
X21169Y9043
X20618Y9319
X20894Y10343
X21169Y11248
X21169Y11602
X20894Y12429
X20343Y12075
X19791Y10579
X18413Y11957
X18413Y12429
X17587Y12705
X17587Y13453
X18689Y13453
X18689Y13965
X20343Y15303
X20854Y14988
X21169Y15461
X20343Y16209
X20343Y16799
X18965Y16563
X18413Y17587
X17862Y17862
X16917Y18177
X16366Y17862
X16484Y17035
X15382Y17035
X14280Y17035
X13610Y17138
X13177Y17587
X12626Y17311
X11917Y17594
X11445Y16524
X11445Y16169
X11445Y15539
X10969Y14516
X10654Y14268
X12228Y13921
X12898Y14516
X14870Y13571
X15618Y12075
X15854Y9713
X15941Y8720
X17862Y10972
X20894Y14437
X22823Y14791
X22862Y15146
X23689Y13453
X24870Y12232
X25264Y11051
X24437Y10343
X23098Y11248
X25618Y8689
X26602Y10224
X28295Y8768
X27980Y6130
X28020Y4594
X27311Y3965
X25854Y4476
X24791Y4909
X23571Y6051
X22114Y4358
X19988Y3807
X19004Y1957
X19437Y894
X21366Y1996
X22154Y894
X23531Y1681
X24713Y1681
X25894Y1681
X27547Y894
X29043Y1681
X30224Y1681
X31406Y1681
X32665Y894
X34634Y894
X36642Y1681
X38492Y1720
X38492Y3453
X39083Y5618
X39083Y7587
X39083Y9555
X37547Y9398
X37114Y10421
X36484Y10618
X36012Y11484
X36484Y12508
X35776Y12902
X34791Y13177
X34201Y13177
X33531Y13295
X33768Y14240
X33177Y14909
X32823Y14909
X32469Y14909
X31366Y14791
X31445Y14043
X32272Y14004
X32587Y14004
X32587Y13689
X32272Y13689
X32626Y12508
X33925Y11642
X34201Y11406
X33768Y10539
X33177Y11169
X32823Y11169
X32469Y11169
X32547Y10303
X32232Y10303
X32232Y9988
X32547Y9988
X33531Y9594
X34201Y9437
X34791Y9437
X35736Y9161
X36484Y8768
X35972Y7783
X36484Y6917
X37114Y6720
X36720Y4870
X34791Y5697
X34201Y5736
X33571Y5815
X33728Y6799
X33177Y7429
X32823Y7429
X32469Y7429
X32331Y6535
X32331Y6220
X32646Y6220
X32646Y6535
X33925Y7862
X34201Y7626
X32508Y8846
X31248Y10382
X31327Y11051
X29083Y12390
X27469Y13965
X29240Y16012
X27626Y17705
X29319Y19594
X31248Y17823
X32291Y17752
X32291Y17437
X32606Y17441
X32606Y17752
X32469Y18650
X32823Y18650
X33177Y18650
X33728Y18059
X34201Y18886
X33925Y19161
X34201Y20657
X34791Y20657
X35815Y20343
X36484Y19988
X36051Y18965
X36484Y18098
X37114Y17902
X37547Y16839
X36484Y16248
X35736Y16563
X34791Y16917
X34201Y16917
X33531Y17035
X33925Y15461
X34201Y15146
X36051Y15224
X36484Y14358
X37114Y14161
X37547Y13098
X39083Y13492
X39083Y11524
X39083Y15461
X39083Y17429
X39083Y19398
X37547Y20579
X37154Y21642
X36484Y21839
X36051Y22705
X36484Y23689
X35579Y24004
X34791Y24398
X34201Y24398
X33571Y24555
X32626Y24949
X32626Y25264
X32311Y25264
X32311Y24949
X32469Y26130
X32823Y26130
X33177Y26130
X33768Y25461
X34201Y26366
X33925Y26642
X34201Y28138
X34791Y28138
X35776Y27744
X36484Y27429
X36051Y26445
X36484Y25618
X37193Y25382
X37547Y24319
X39083Y25303
X39083Y23335
X39083Y21366
X34201Y22626
X33925Y22902
X33177Y22390
X32823Y22390
X32469Y22390
X32587Y21484
X32587Y21181
X32272Y21181
X32272Y21496
X31287Y21642
X29673Y23295
X30657Y23610
X31051Y25579
X29634Y27429
X30539Y28059
X31563Y28610
X32193Y28689
X32193Y29004
X32508Y29004
X32508Y28705
X33571Y28374
X33768Y29240
X33177Y29870
X32823Y29870
X32469Y29870
X31366Y31209
X30618Y30776
X32193Y32469
X32193Y32744
X32469Y32744
X32472Y32457
X33531Y32075
X34201Y31878
X34791Y31878
X33728Y33020
X33177Y33610
X32823Y33610
X32469Y33610
X32075Y34673
X30618Y34398
X30618Y34988
X30618Y32783
X28098Y32862
X28098Y34437
X28098Y34988
X25618Y35028
X25579Y34437
X25618Y32823
X25618Y30854
X25618Y29240
X25579Y27114
X25579Y25343
X28098Y27154
X28217Y25224
X27232Y21720
X25618Y21524
X25776Y19594
X24594Y16996
X25461Y15972
X22547Y19161
X22547Y19516
X22862Y20894
X22823Y21681
X22823Y23295
X22272Y23610
X22823Y25146
X22272Y26016
X22823Y27075
X21996Y28059
X22547Y28807
X22665Y29280
X20697Y29437
X19988Y30146
X21720Y31209
X20539Y32390
X22272Y33846
X21445Y34673
X21366Y35854
X22823Y32744
X23098Y31602
X20343Y27705
X19988Y27665
X20736Y27232
X20618Y25343
X18650Y25736
X18610Y24516
X18610Y23571
X19437Y22626
X19791Y22941
X19280Y22075
X19201Y21681
X20067Y20657
X20854Y22075
X18413Y19791
X17587Y19516
X17154Y20933
X16642Y21169
X17587Y21681
X17902Y22114
X18138Y21524
X18138Y21169
X16996Y22272
X16051Y22429
X15776Y22429
X15264Y22429
X15461Y21681
X15264Y23295
X14083Y23177
X14004Y23650
X13453Y23965
X11839Y22547
X12350Y21760
X13177Y20972
X13177Y20067
X13453Y18846
X14004Y18138
X15776Y18886
X19240Y19240
X19516Y18138
X15264Y24634
X15264Y26091
X16209Y26366
X16894Y26024
X16484Y27665
X16406Y28571
X15579Y29398
X15146Y29437
X14555Y29437
X13453Y29437
X13453Y30815
X14083Y31406
X14634Y32429
X13531Y32429
X14083Y33453
X12626Y34122
X12626Y35815
X11445Y35579
X9870Y34476
X11878Y32311
X11957Y31051
X11957Y30421
X13453Y28059
X14555Y28059
X13453Y26957
X13177Y26642
X13453Y26130
X10933Y27547
X7941Y26957
X7941Y25854
X7783Y24594
X8492Y23807
X9043Y24870
X10028Y23374
X10028Y22272
X11917Y19791
X17823Y28531
X18098Y28531
X18098Y28807
X17823Y28807
X17811Y29083
X18098Y29083
X17508Y29083
X17114Y29555
X16799Y29555
X16484Y29555
X16366Y30343
X17783Y29988
X20067Y39476
X21917Y39476
X28098Y30815
X28098Y29201
X33925Y30382
X34201Y30106
X35736Y31602
X36484Y31209
X36091Y30224
X36484Y29358
X37154Y29161
X37547Y28059
X39083Y27272
X39083Y29240
X39083Y31209
X37547Y31839
X37154Y32862
X36484Y33059
X36051Y33925
X36484Y34909
X35776Y35303
X34791Y35618
X34201Y35618
X33925Y34122
X34201Y33846
X36130Y36760
X37547Y35539
X38492Y36917
X39083Y35146
X39083Y33177
X34240Y37902
X33217Y39476
X35382Y39476
X36917Y38689
X38492Y38689
X33768Y21760
X33492Y20776
X31484Y19161
X31130Y6917
X34476Y3098
X21563Y7193
X17232Y933
X15264Y894
X13295Y894
X11917Y4201
X7626Y5461
X7154Y5815
X5657Y7193
X4831Y6799
X5736Y8217
T02
X10130Y2325
X10630Y2325
X10630Y1825
X10130Y1825
X11130Y1825
X11130Y2325
X11630Y2325
X12130Y2325
X12130Y1825
X11630Y1825
T03
X11587Y37083
X12087Y37083
X12587Y37083
X13087Y37083
X13587Y37083
X14087Y37083
X14587Y37083
X15087Y37083
X15587Y37083
X16087Y37083
X16587Y37083
X17087Y37083
X17087Y39083
X16587Y39083
X16087Y39083
X15587Y39083
X15087Y39083
X14587Y39083
X14087Y39083
X13587Y39083
X13087Y39083
X12587Y39083
X12087Y39083
X11587Y39083
X11087Y39083
X10587Y39083
X10087Y39083
X9587Y39083
X9087Y39083
X8587Y39083
X8087Y39083
X7587Y39083
X7587Y37083
X8087Y37083
X8587Y37083
X9087Y37083
X9587Y37083
X10087Y37083
X10587Y37083
X11087Y37083
X23112Y37138
X23612Y37138
X24112Y37138
X24612Y37138
X25112Y37138
X25612Y37138
X26112Y37138
X26612Y37138
X27112Y37138
X27612Y37138
X28112Y37138
X28612Y37138
X29112Y37138
X29612Y37138
X30112Y37138
X30612Y37138
X31112Y37138
X31612Y37138
X32112Y37138
X32612Y37138
X32612Y39138
X32112Y39138
X31612Y39138
X31112Y39138
X30612Y39138
X30112Y39138
X29612Y39138
X29112Y39138
X28612Y39138
X28112Y39138
X27612Y39138
X27112Y39138
X26612Y39138
X26112Y39138
X25612Y39138
X25112Y39138
X24612Y39138
X24112Y39138
X23612Y39138
X23112Y39138
T04
X15815Y30421
X13571Y34673
X12350Y34673
X13571Y35933
X5461Y33571
X4083Y32350
X4752Y29949
X5776Y23807
X4004Y22941
X4831Y21484
X4839Y16469
X4835Y15657
X4831Y14476
X4831Y13295
X4831Y12114
X4831Y10933
X4831Y9752
X4831Y8571
X4831Y7386
X4831Y6209
X4831Y5028
X4831Y3846
X6012Y3846
X7193Y3846
X8374Y3846
X9555Y3846
X11614Y3846
X12705Y3846
X13768Y3846
X14831Y3846
X15933Y3846
X17035Y3846
X17035Y5067
X17035Y6248
X17035Y7429
X17035Y8610
X17035Y9791
X17035Y10972
X17035Y12102
X17035Y13335
X17035Y14516
X17035Y15657
X17035Y16445
X16051Y16445
X15185Y16445
X14319Y16445
X7823Y16445
X11831Y24248
X33217Y23571
X33295Y27272
X33177Y31012
X33571Y34909
X33256Y19831
X33256Y16091
X33217Y12350
X33217Y8610
M30
