G75*
%MOIN*%
%OFA0B0*%
%FSLAX25Y25*%
%IPPOS*%
%LPD*%
%AMOC8*
5,1,8,0,0,1.08239X$1,22.5*
%
%ADD10C,0.00394*%
D10*
X0010906Y0012874D02*
X0010906Y0038465D01*
X0010904Y0038617D01*
X0010898Y0038769D01*
X0010888Y0038921D01*
X0010875Y0039072D01*
X0010857Y0039223D01*
X0010836Y0039374D01*
X0010810Y0039524D01*
X0010781Y0039673D01*
X0010748Y0039822D01*
X0010711Y0039969D01*
X0010671Y0040116D01*
X0010626Y0040261D01*
X0010578Y0040405D01*
X0010526Y0040548D01*
X0010471Y0040690D01*
X0010412Y0040830D01*
X0010349Y0040969D01*
X0010283Y0041106D01*
X0010213Y0041241D01*
X0010140Y0041374D01*
X0010063Y0041505D01*
X0009983Y0041635D01*
X0009900Y0041762D01*
X0009814Y0041887D01*
X0009724Y0042010D01*
X0009631Y0042130D01*
X0009535Y0042248D01*
X0009436Y0042364D01*
X0009334Y0042477D01*
X0009230Y0042587D01*
X0009122Y0042695D01*
X0009012Y0042799D01*
X0008899Y0042901D01*
X0008783Y0043000D01*
X0008665Y0043096D01*
X0008545Y0043189D01*
X0008422Y0043279D01*
X0008297Y0043365D01*
X0008170Y0043448D01*
X0008040Y0043528D01*
X0007909Y0043605D01*
X0007776Y0043678D01*
X0007641Y0043748D01*
X0007504Y0043814D01*
X0007365Y0043877D01*
X0007225Y0043936D01*
X0007083Y0043991D01*
X0006940Y0044043D01*
X0006796Y0044091D01*
X0006651Y0044136D01*
X0006504Y0044176D01*
X0006357Y0044213D01*
X0006208Y0044246D01*
X0006059Y0044275D01*
X0005909Y0044301D01*
X0005758Y0044322D01*
X0005607Y0044340D01*
X0005456Y0044353D01*
X0005304Y0044363D01*
X0005152Y0044369D01*
X0005000Y0044371D01*
X0005000Y0044370D02*
X0005000Y0359331D01*
X0005000Y0359330D02*
X0005152Y0359332D01*
X0005304Y0359338D01*
X0005456Y0359348D01*
X0005607Y0359361D01*
X0005758Y0359379D01*
X0005909Y0359400D01*
X0006059Y0359426D01*
X0006208Y0359455D01*
X0006357Y0359488D01*
X0006504Y0359525D01*
X0006651Y0359565D01*
X0006796Y0359610D01*
X0006940Y0359658D01*
X0007083Y0359710D01*
X0007225Y0359765D01*
X0007365Y0359824D01*
X0007504Y0359887D01*
X0007641Y0359953D01*
X0007776Y0360023D01*
X0007909Y0360096D01*
X0008040Y0360173D01*
X0008170Y0360253D01*
X0008297Y0360336D01*
X0008422Y0360422D01*
X0008545Y0360512D01*
X0008665Y0360605D01*
X0008783Y0360701D01*
X0008899Y0360800D01*
X0009012Y0360902D01*
X0009122Y0361006D01*
X0009230Y0361114D01*
X0009334Y0361224D01*
X0009436Y0361337D01*
X0009535Y0361453D01*
X0009631Y0361571D01*
X0009724Y0361691D01*
X0009814Y0361814D01*
X0009900Y0361939D01*
X0009983Y0362066D01*
X0010063Y0362196D01*
X0010140Y0362327D01*
X0010213Y0362460D01*
X0010283Y0362595D01*
X0010349Y0362732D01*
X0010412Y0362871D01*
X0010471Y0363011D01*
X0010526Y0363153D01*
X0010578Y0363296D01*
X0010626Y0363440D01*
X0010671Y0363585D01*
X0010711Y0363732D01*
X0010748Y0363879D01*
X0010781Y0364028D01*
X0010810Y0364177D01*
X0010836Y0364327D01*
X0010857Y0364478D01*
X0010875Y0364629D01*
X0010888Y0364780D01*
X0010898Y0364932D01*
X0010904Y0365084D01*
X0010906Y0365236D01*
X0010906Y0390827D01*
X0034528Y0390827D01*
X0034718Y0390829D01*
X0034908Y0390836D01*
X0035098Y0390848D01*
X0035288Y0390864D01*
X0035477Y0390884D01*
X0035666Y0390910D01*
X0035854Y0390939D01*
X0036041Y0390974D01*
X0036227Y0391013D01*
X0036412Y0391056D01*
X0036597Y0391104D01*
X0036780Y0391156D01*
X0036961Y0391212D01*
X0037141Y0391273D01*
X0037320Y0391339D01*
X0037497Y0391408D01*
X0037673Y0391482D01*
X0037846Y0391560D01*
X0038018Y0391643D01*
X0038187Y0391729D01*
X0038355Y0391819D01*
X0038520Y0391914D01*
X0038683Y0392012D01*
X0038843Y0392115D01*
X0039001Y0392221D01*
X0039156Y0392331D01*
X0039309Y0392444D01*
X0039459Y0392562D01*
X0039605Y0392683D01*
X0039749Y0392807D01*
X0039890Y0392935D01*
X0040028Y0393066D01*
X0040163Y0393201D01*
X0040294Y0393339D01*
X0040422Y0393480D01*
X0040546Y0393624D01*
X0040667Y0393770D01*
X0040785Y0393920D01*
X0040898Y0394073D01*
X0041008Y0394228D01*
X0041114Y0394386D01*
X0041217Y0394546D01*
X0041315Y0394709D01*
X0041410Y0394874D01*
X0041500Y0395042D01*
X0041586Y0395211D01*
X0041669Y0395383D01*
X0041747Y0395556D01*
X0041821Y0395732D01*
X0041890Y0395909D01*
X0041956Y0396088D01*
X0042017Y0396268D01*
X0042073Y0396449D01*
X0042125Y0396632D01*
X0042173Y0396817D01*
X0042216Y0397002D01*
X0042255Y0397188D01*
X0042290Y0397375D01*
X0042319Y0397563D01*
X0042345Y0397752D01*
X0042365Y0397941D01*
X0042381Y0398131D01*
X0042393Y0398321D01*
X0042400Y0398511D01*
X0042402Y0398701D01*
X0357362Y0398701D01*
X0357364Y0398511D01*
X0357371Y0398321D01*
X0357383Y0398131D01*
X0357399Y0397941D01*
X0357419Y0397752D01*
X0357445Y0397563D01*
X0357474Y0397375D01*
X0357509Y0397188D01*
X0357548Y0397002D01*
X0357591Y0396817D01*
X0357639Y0396632D01*
X0357691Y0396449D01*
X0357747Y0396268D01*
X0357808Y0396088D01*
X0357874Y0395909D01*
X0357943Y0395732D01*
X0358017Y0395556D01*
X0358095Y0395383D01*
X0358178Y0395211D01*
X0358264Y0395042D01*
X0358354Y0394874D01*
X0358449Y0394709D01*
X0358547Y0394546D01*
X0358650Y0394386D01*
X0358756Y0394228D01*
X0358866Y0394073D01*
X0358979Y0393920D01*
X0359097Y0393770D01*
X0359218Y0393624D01*
X0359342Y0393480D01*
X0359470Y0393339D01*
X0359601Y0393201D01*
X0359736Y0393066D01*
X0359874Y0392935D01*
X0360015Y0392807D01*
X0360159Y0392683D01*
X0360305Y0392562D01*
X0360455Y0392444D01*
X0360608Y0392331D01*
X0360763Y0392221D01*
X0360921Y0392115D01*
X0361081Y0392012D01*
X0361244Y0391914D01*
X0361409Y0391819D01*
X0361577Y0391729D01*
X0361746Y0391643D01*
X0361918Y0391560D01*
X0362091Y0391482D01*
X0362267Y0391408D01*
X0362444Y0391339D01*
X0362623Y0391273D01*
X0362803Y0391212D01*
X0362984Y0391156D01*
X0363167Y0391104D01*
X0363352Y0391056D01*
X0363537Y0391013D01*
X0363723Y0390974D01*
X0363910Y0390939D01*
X0364098Y0390910D01*
X0364287Y0390884D01*
X0364476Y0390864D01*
X0364666Y0390848D01*
X0364856Y0390836D01*
X0365046Y0390829D01*
X0365236Y0390827D01*
X0388858Y0390827D01*
X0388858Y0365236D01*
X0388860Y0365084D01*
X0388866Y0364932D01*
X0388876Y0364780D01*
X0388889Y0364629D01*
X0388907Y0364478D01*
X0388928Y0364327D01*
X0388954Y0364177D01*
X0388983Y0364028D01*
X0389016Y0363879D01*
X0389053Y0363732D01*
X0389093Y0363585D01*
X0389138Y0363440D01*
X0389186Y0363296D01*
X0389238Y0363153D01*
X0389293Y0363011D01*
X0389352Y0362871D01*
X0389415Y0362732D01*
X0389481Y0362595D01*
X0389551Y0362460D01*
X0389624Y0362327D01*
X0389701Y0362196D01*
X0389781Y0362066D01*
X0389864Y0361939D01*
X0389950Y0361814D01*
X0390040Y0361691D01*
X0390133Y0361571D01*
X0390229Y0361453D01*
X0390328Y0361337D01*
X0390430Y0361224D01*
X0390534Y0361114D01*
X0390642Y0361006D01*
X0390752Y0360902D01*
X0390865Y0360800D01*
X0390981Y0360701D01*
X0391099Y0360605D01*
X0391219Y0360512D01*
X0391342Y0360422D01*
X0391467Y0360336D01*
X0391594Y0360253D01*
X0391724Y0360173D01*
X0391855Y0360096D01*
X0391988Y0360023D01*
X0392123Y0359953D01*
X0392260Y0359887D01*
X0392399Y0359824D01*
X0392539Y0359765D01*
X0392681Y0359710D01*
X0392824Y0359658D01*
X0392968Y0359610D01*
X0393113Y0359565D01*
X0393260Y0359525D01*
X0393407Y0359488D01*
X0393556Y0359455D01*
X0393705Y0359426D01*
X0393855Y0359400D01*
X0394006Y0359379D01*
X0394157Y0359361D01*
X0394308Y0359348D01*
X0394460Y0359338D01*
X0394612Y0359332D01*
X0394764Y0359330D01*
X0394764Y0359331D02*
X0394764Y0044370D01*
X0394764Y0044371D02*
X0394612Y0044369D01*
X0394460Y0044363D01*
X0394308Y0044353D01*
X0394157Y0044340D01*
X0394006Y0044322D01*
X0393855Y0044301D01*
X0393705Y0044275D01*
X0393556Y0044246D01*
X0393407Y0044213D01*
X0393260Y0044176D01*
X0393113Y0044136D01*
X0392968Y0044091D01*
X0392824Y0044043D01*
X0392681Y0043991D01*
X0392539Y0043936D01*
X0392399Y0043877D01*
X0392260Y0043814D01*
X0392123Y0043748D01*
X0391988Y0043678D01*
X0391855Y0043605D01*
X0391724Y0043528D01*
X0391594Y0043448D01*
X0391467Y0043365D01*
X0391342Y0043279D01*
X0391219Y0043189D01*
X0391099Y0043096D01*
X0390981Y0043000D01*
X0390865Y0042901D01*
X0390752Y0042799D01*
X0390642Y0042695D01*
X0390534Y0042587D01*
X0390430Y0042477D01*
X0390328Y0042364D01*
X0390229Y0042248D01*
X0390133Y0042130D01*
X0390040Y0042010D01*
X0389950Y0041887D01*
X0389864Y0041762D01*
X0389781Y0041635D01*
X0389701Y0041505D01*
X0389624Y0041374D01*
X0389551Y0041241D01*
X0389481Y0041106D01*
X0389415Y0040969D01*
X0389352Y0040830D01*
X0389293Y0040690D01*
X0389238Y0040548D01*
X0389186Y0040405D01*
X0389138Y0040261D01*
X0389093Y0040116D01*
X0389053Y0039969D01*
X0389016Y0039822D01*
X0388983Y0039673D01*
X0388954Y0039524D01*
X0388928Y0039374D01*
X0388907Y0039223D01*
X0388889Y0039072D01*
X0388876Y0038921D01*
X0388866Y0038769D01*
X0388860Y0038617D01*
X0388858Y0038465D01*
X0388858Y0012874D01*
X0365236Y0012874D01*
X0365046Y0012872D01*
X0364856Y0012865D01*
X0364666Y0012853D01*
X0364476Y0012837D01*
X0364287Y0012817D01*
X0364098Y0012791D01*
X0363910Y0012762D01*
X0363723Y0012727D01*
X0363537Y0012688D01*
X0363352Y0012645D01*
X0363167Y0012597D01*
X0362984Y0012545D01*
X0362803Y0012489D01*
X0362623Y0012428D01*
X0362444Y0012362D01*
X0362267Y0012293D01*
X0362091Y0012219D01*
X0361918Y0012141D01*
X0361746Y0012058D01*
X0361577Y0011972D01*
X0361409Y0011882D01*
X0361244Y0011787D01*
X0361081Y0011689D01*
X0360921Y0011586D01*
X0360763Y0011480D01*
X0360608Y0011370D01*
X0360455Y0011257D01*
X0360305Y0011139D01*
X0360159Y0011018D01*
X0360015Y0010894D01*
X0359874Y0010766D01*
X0359736Y0010635D01*
X0359601Y0010500D01*
X0359470Y0010362D01*
X0359342Y0010221D01*
X0359218Y0010077D01*
X0359097Y0009931D01*
X0358979Y0009781D01*
X0358866Y0009628D01*
X0358756Y0009473D01*
X0358650Y0009315D01*
X0358547Y0009155D01*
X0358449Y0008992D01*
X0358354Y0008827D01*
X0358264Y0008659D01*
X0358178Y0008490D01*
X0358095Y0008318D01*
X0358017Y0008145D01*
X0357943Y0007969D01*
X0357874Y0007792D01*
X0357808Y0007613D01*
X0357747Y0007433D01*
X0357691Y0007252D01*
X0357639Y0007069D01*
X0357591Y0006884D01*
X0357548Y0006699D01*
X0357509Y0006513D01*
X0357474Y0006326D01*
X0357445Y0006138D01*
X0357419Y0005949D01*
X0357399Y0005760D01*
X0357383Y0005570D01*
X0357371Y0005380D01*
X0357364Y0005190D01*
X0357362Y0005000D01*
X0042402Y0005000D01*
X0042400Y0005190D01*
X0042393Y0005380D01*
X0042381Y0005570D01*
X0042365Y0005760D01*
X0042345Y0005949D01*
X0042319Y0006138D01*
X0042290Y0006326D01*
X0042255Y0006513D01*
X0042216Y0006699D01*
X0042173Y0006884D01*
X0042125Y0007069D01*
X0042073Y0007252D01*
X0042017Y0007433D01*
X0041956Y0007613D01*
X0041890Y0007792D01*
X0041821Y0007969D01*
X0041747Y0008145D01*
X0041669Y0008318D01*
X0041586Y0008490D01*
X0041500Y0008659D01*
X0041410Y0008827D01*
X0041315Y0008992D01*
X0041217Y0009155D01*
X0041114Y0009315D01*
X0041008Y0009473D01*
X0040898Y0009628D01*
X0040785Y0009781D01*
X0040667Y0009931D01*
X0040546Y0010077D01*
X0040422Y0010221D01*
X0040294Y0010362D01*
X0040163Y0010500D01*
X0040028Y0010635D01*
X0039890Y0010766D01*
X0039749Y0010894D01*
X0039605Y0011018D01*
X0039459Y0011139D01*
X0039309Y0011257D01*
X0039156Y0011370D01*
X0039001Y0011480D01*
X0038843Y0011586D01*
X0038683Y0011689D01*
X0038520Y0011787D01*
X0038355Y0011882D01*
X0038187Y0011972D01*
X0038018Y0012058D01*
X0037846Y0012141D01*
X0037673Y0012219D01*
X0037497Y0012293D01*
X0037320Y0012362D01*
X0037141Y0012428D01*
X0036961Y0012489D01*
X0036780Y0012545D01*
X0036597Y0012597D01*
X0036412Y0012645D01*
X0036227Y0012688D01*
X0036041Y0012727D01*
X0035854Y0012762D01*
X0035666Y0012791D01*
X0035477Y0012817D01*
X0035288Y0012837D01*
X0035098Y0012853D01*
X0034908Y0012865D01*
X0034718Y0012872D01*
X0034528Y0012874D01*
X0010906Y0012874D01*
M02*
